<svg width="34" height="20" viewBox="0 0 34 20" fill="none" xmlns="http://www.w3.org/2000/svg">
<path d="M18.3267 19.4323L33.4568 4.30193C33.8071 3.95198 34 3.48483 34 2.98672C34 2.48861 33.8071 2.02146 33.4568 1.67151L32.3429 0.557263C31.617 -0.167787 30.4372 -0.167787 29.7124 0.557263L17.007 13.2626L4.28756 0.543166C3.93734 0.193218 3.47046 0 2.97263 0C2.47424 0 2.00737 0.193218 1.65686 0.543166L0.543167 1.65742C0.192944 2.00764 0 2.47451 0 2.97262C0 3.47073 0.192944 3.93788 0.543167 4.28783L15.6871 19.4323C16.0385 19.7831 16.5076 19.9758 17.0062 19.9747C17.5068 19.9758 17.9756 19.7831 18.3267 19.4323Z" fill="black"/>
</svg>
