<svg width="200" height="200" viewBox="0 0 200 200" fill="none" xmlns="http://www.w3.org/2000/svg">
<path d="M156.649 176.144H43.3516C28.5327 176.144 16.5197 164.131 16.5197 149.312V79.345H183.48V149.312C183.48 164.131 171.467 176.144 156.649 176.144Z" fill="#C6865C"/>
<path d="M73.8909 176.146H43.35C28.5312 176.146 16.5197 164.131 16.5197 149.312V79.3467H47.0606V149.312C47.0606 164.131 59.072 176.146 73.8909 176.146Z" fill="#AA7A63"/>
<path d="M171.698 156.511L133.399 194.81C130.391 197.818 125.514 197.818 122.506 194.81L52.375 124.679C49.3671 121.671 49.3671 116.794 52.375 113.786L90.6733 75.4875C93.6809 72.4799 98.5586 72.4796 101.566 75.4875L171.697 145.619C174.706 148.626 174.706 153.504 171.698 156.511Z" fill="#B3E59F"/>
<path d="M112.036 159.497C125.483 159.497 136.385 148.596 136.385 135.149C136.385 121.702 125.483 110.801 112.036 110.801C98.5891 110.801 87.688 121.702 87.688 135.149C87.688 148.596 98.5891 159.497 112.036 159.497Z" fill="#95D6A4"/>
<path d="M143.53 184.679L133.399 194.81C130.391 197.818 125.514 197.818 122.506 194.81L112.375 184.679C120.98 176.075 134.928 176.076 143.53 184.679Z" fill="#95D6A4"/>
<path d="M171.698 156.511L161.567 166.642C152.964 158.04 152.964 144.09 161.567 135.487L171.698 145.618C174.706 148.626 174.706 153.504 171.698 156.511Z" fill="#95D6A4"/>
<path d="M62.5062 134.81L52.3754 124.679C49.3675 121.671 49.3675 116.794 52.3754 113.786L62.5062 103.655C71.1105 112.259 71.1105 126.205 62.5062 134.81Z" fill="#95D6A4"/>
<path d="M159.71 33.4668H40.2896C21.2445 33.4668 5.80554 48.9058 5.80554 67.9509V82.062C5.80554 101.107 21.2445 116.546 40.2896 116.546H159.71C178.755 116.546 194.194 101.107 194.194 82.062V67.9509C194.194 48.9062 178.755 33.4668 159.71 33.4668Z" fill="#C6865C"/>
<path d="M73.6555 116.549H40.2877C21.2461 116.549 5.80554 101.109 5.80554 82.063V67.9519C5.80554 48.9063 21.2461 33.4697 40.2877 33.4697H73.6555C54.61 33.4697 39.1733 48.9063 39.1733 67.9519V82.063C39.1733 101.109 54.61 116.549 73.6555 116.549Z" fill="#AA7A63"/>
<path d="M108.02 99.9364H91.9804C86.9307 99.9364 82.8373 95.8427 82.8373 90.7933V80.9949C82.8373 75.9452 86.9311 71.8518 91.9804 71.8518H108.02C113.07 71.8518 117.163 75.9456 117.163 80.9949V90.7933C117.163 95.8427 113.069 99.9364 108.02 99.9364Z" fill="#FFD064"/>
<path d="M98.681 138.082C99.0767 139.975 99.6151 141.242 100.442 142.405L100.187 142.661C99.0415 143.806 99.0415 145.663 100.187 146.808C100.76 147.38 101.51 147.667 102.261 147.667C103.011 147.667 103.762 147.381 104.334 146.808L104.813 146.33C106.029 146.915 107.31 147.179 108.562 147.179C110.488 147.179 112.344 146.559 113.778 145.538C117.086 143.181 118.111 139.09 116.328 135.357C115.445 133.51 114.52 131.426 114.346 129.979C114.326 129.824 114.529 129.452 114.957 129.159C115.177 129.009 115.954 128.552 116.735 128.972C118.539 129.94 118.733 131.512 118.749 131.688C118.897 133.301 120.318 134.489 121.937 134.34C123.55 134.192 124.737 132.764 124.589 131.152C124.491 130.091 124.14 128.865 123.472 127.669L123.695 127.446C124.841 126.301 124.841 124.444 123.695 123.299C122.55 122.154 120.693 122.154 119.548 123.299L119.197 123.651C116.802 122.509 113.942 122.75 111.65 124.315C109.429 125.832 108.231 128.271 108.522 130.683C108.798 132.966 109.893 135.493 111.035 137.884C111.743 139.368 111.067 140.267 110.375 140.76C109.385 141.465 107.757 141.667 106.52 140.447C105.094 139.04 104.783 138.613 104.421 136.882C104.09 135.297 102.535 134.281 100.951 134.612C99.366 134.943 98.3494 136.497 98.681 138.082Z" fill="black"/>
<path d="M197.128 67.9493C197.128 54.8833 190.482 42.9766 179.35 36.0985C177.973 35.2477 176.166 35.6735 175.314 37.0518C174.463 38.4297 174.89 40.2365 176.268 41.0881C185.658 46.8901 191.264 56.9317 191.264 67.9497V82.0647C191.264 99.4614 177.109 113.614 159.71 113.614H40.2912C22.8926 113.614 8.73765 99.461 8.73765 82.0647V67.9497C8.73765 50.553 22.8926 36.4 40.2912 36.4H159.71C162.018 36.4 164.311 36.6487 166.523 37.1398C168.104 37.4905 169.671 36.4931 170.021 34.9119C170.372 33.3307 169.375 31.7647 167.793 31.414C165.164 30.831 162.445 30.535 159.71 30.535H137.519V19.1155C137.519 8.57499 128.943 0 118.403 0H81.5971C71.0565 0 62.4812 8.57499 62.4812 19.1155V30.5346H40.2904C19.6574 30.5346 2.87189 47.3186 2.87189 67.9493V82.0643C2.87189 92.2479 6.96369 101.493 13.5876 108.246V149.311C13.5876 165.724 26.9386 179.077 43.35 179.077H102.627L120.436 196.886C122.444 198.894 125.114 200 127.954 200C130.794 200 133.465 198.894 135.473 196.886L153.282 179.077H156.65C173.061 179.077 186.413 165.724 186.413 149.311V108.245C193.036 101.492 197.128 92.2475 197.128 82.0643V67.9493H197.128ZM68.3465 19.1155C68.3465 11.8089 74.2909 5.86498 81.5971 5.86498H118.403C125.71 5.86498 131.654 11.8089 131.654 19.1155V30.5346H68.3465V19.1155ZM127.181 120.004C135.531 128.355 135.531 141.942 127.181 150.292C118.831 158.642 105.243 158.643 96.8929 150.292C92.8473 146.247 90.6198 140.869 90.6198 135.148C90.6198 129.428 92.8473 124.049 96.8925 120.004C97.0681 119.829 97.2534 119.653 97.4411 119.479H126.633C126.82 119.653 127.005 119.828 127.181 120.004ZM54.4504 122.606C53.6043 121.76 53.1265 120.637 53.0647 119.479H66.022C65.9771 123.466 64.6977 127.297 62.3447 130.5L54.4504 122.606ZM43.3504 173.212C30.1734 173.212 19.453 162.49 19.453 149.311V113.126C25.4126 117.136 32.5831 119.479 40.2908 119.479H47.2009C47.2678 122.167 48.3419 124.791 50.3031 126.753L69.8257 146.275C70.3985 146.848 71.1488 147.134 71.8995 147.134C72.6499 147.134 73.4006 146.848 73.9734 146.275C75.1186 145.13 75.1186 143.274 73.9734 142.128L66.5331 134.688C69.9762 130.341 71.8424 125.021 71.8874 119.479H89.706C86.4935 124.037 84.756 129.457 84.756 135.148C84.756 142.435 87.5938 149.286 92.7468 154.439C98.0659 159.758 105.052 162.417 112.038 162.417C119.025 162.417 126.011 159.758 131.33 154.439C140.831 144.938 141.838 130.117 134.365 119.479H141.409L157.545 135.615C150.419 144.644 150.42 157.49 157.548 166.518L143.407 180.659C134.379 173.53 121.531 173.53 112.503 180.657L82.2629 150.417C81.1173 149.272 79.2609 149.272 78.1156 150.417C76.9704 151.563 76.9704 153.42 78.1156 154.564L96.7623 173.212H43.3504ZM161.727 162.337C156.834 155.653 156.833 146.481 161.725 139.796L169.625 147.696C170.527 148.596 171.023 149.793 171.023 151.066C171.023 152.34 170.526 153.538 169.623 154.441L161.727 162.337ZM131.325 192.739C130.425 193.639 129.228 194.135 127.955 194.135C126.681 194.135 125.484 193.639 124.584 192.739L116.683 184.837C123.368 179.945 132.54 179.945 139.225 184.839L131.325 192.739ZM159.297 173.062L173.771 158.588C175.782 156.578 176.888 153.906 176.888 151.066C176.888 148.225 175.781 145.554 173.771 143.548L149.703 119.479H159.71C167.418 119.479 174.589 117.136 180.548 113.125V149.311C180.548 161.595 171.233 171.741 159.297 173.062Z" fill="black"/>
<path d="M91.9804 68.9189C85.3217 68.9189 79.9044 74.3362 79.9044 80.9949V90.7933C79.9044 97.452 85.3213 102.869 91.9804 102.869H108.02C114.678 102.869 120.096 97.4517 120.096 90.7933V80.9949C120.096 74.3362 114.679 68.9189 108.02 68.9189H91.9804ZM114.231 80.9945V90.793C114.231 94.2177 111.444 97.0036 108.02 97.0036H91.9804C88.5557 97.0036 85.7694 94.2173 85.7694 90.793V80.9945C85.7694 77.5698 88.5557 74.7835 91.9804 74.7835H108.02C111.444 74.7839 114.231 77.5698 114.231 80.9945Z" fill="black"/>
</svg>
