<svg width="511" height="512" viewBox="0 0 511 512" fill="none" xmlns="http://www.w3.org/2000/svg">
<path d="M235.793 347.266C239.695 343.355 239.695 337.027 235.793 333.117C231.887 329.219 225.559 329.219 221.648 333.117C217.75 337.027 217.75 343.355 221.648 347.266C225.559 351.164 231.887 351.164 235.793 347.266Z" fill="#FEED01"/>
<path d="M188.449 109.969C188.449 170.605 237.781 219.941 298.418 219.941C359.055 219.941 408.387 170.605 408.387 109.969C408.387 49.332 359.055 0 298.418 0C237.781 0 188.449 49.332 188.449 109.969V109.969ZM388.395 109.969C388.395 159.582 348.031 199.945 298.418 199.945C248.805 199.945 208.441 159.582 208.441 109.969C208.441 60.3594 248.805 19.9961 298.418 19.9961C348.031 19.9961 388.395 60.3594 388.395 109.969Z" fill="#FEED01"/>
<path d="M115.652 509.043C119.527 512.949 125.836 512.992 129.762 509.125L178.23 461.375C186.465 453.141 188.969 440.949 185.348 430.352L195.773 420.297C201.387 414.875 208.777 411.887 216.59 411.887H349.492C373.07 411.887 395.355 402.832 412.25 386.391C412.945 385.715 406.973 392.75 502.918 278.078C517.148 261.242 515.02 235.961 498.168 221.715C481.422 207.602 456.336 209.629 442.066 226.176L383.074 286.809C375.625 277.641 364.266 271.926 351.992 271.926H240.512C224.648 265.289 207.816 261.93 190.449 261.93C142.309 261.93 100.273 284.164 77.7149 325.852C68.2109 324.051 58.1875 326.926 50.9766 334.137L3.41798 381.836C-0.464837 385.731 -0.472649 392.031 3.40235 395.938L115.652 509.043ZM190.445 281.922C205.758 281.922 220.562 285.004 234.457 291.082C235.723 291.637 237.086 291.922 238.465 291.922H351.992C362.832 291.922 371.988 300.762 371.988 311.914C371.988 322.941 363.02 331.91 351.992 331.91H270.426C264.906 331.91 260.43 336.387 260.43 341.906C260.43 347.43 264.906 351.902 270.426 351.902H351.992C374.043 351.902 391.98 333.965 391.98 311.914C391.98 310.156 391.855 308.414 391.629 306.688C448.695 248.027 456.742 239.785 457.086 239.375C464.211 230.965 476.859 229.899 485.273 236.992C493.695 244.113 494.762 256.754 487.617 265.211L397.949 372.406C384.855 384.977 367.664 391.895 349.492 391.895H216.59C203.566 391.895 191.238 396.875 181.887 405.91L173.391 414.109L95.0703 335.793C113.375 301.453 147.723 281.922 190.445 281.922V281.922ZM65.125 348.266C68.4219 344.969 73.4844 344.375 77.5039 346.859C79.2344 347.914 74.2656 343.391 164.094 433.094C168.09 437.09 167.875 443.457 164.148 447.184L122.828 487.891L24.5977 388.91L65.125 348.266Z" fill="#FEED01"/>
<path d="M286.422 49.9883V61.7031C274.785 65.8281 266.426 76.9414 266.426 89.9766C266.426 106.512 279.879 119.969 296.418 119.969C301.93 119.969 306.414 124.453 306.414 129.965C306.414 135.477 301.93 139.961 296.418 139.961C292.148 139.961 287.535 137.277 283.437 132.398C279.883 128.172 273.578 127.629 269.351 131.18C265.125 134.734 264.578 141.039 268.133 145.266C273.476 151.621 279.762 156.051 286.422 158.285V169.953C286.422 175.477 290.898 179.949 296.418 179.949C301.937 179.949 306.414 175.477 306.414 169.953V158.238C318.051 154.109 326.41 142.996 326.41 129.965C326.41 113.426 312.957 99.9727 296.418 99.9727C290.906 99.9727 286.422 95.4883 286.422 89.9766C286.422 84.4648 290.906 79.9766 296.418 79.9766C299.961 79.9766 303.699 81.7852 307.23 85.2031C311.199 89.043 317.527 88.9375 321.367 84.9727C325.207 81.0039 325.101 74.6758 321.137 70.8359C316.062 65.9258 310.984 63.1484 306.414 61.6328V49.9883C306.414 44.4648 301.937 39.9883 296.418 39.9883C290.898 39.9883 286.422 44.4648 286.422 49.9883V49.9883Z" fill="#FEED01"/>
</svg>
