<svg width="23" height="24" viewBox="0 0 23 24" fill="none" xmlns="http://www.w3.org/2000/svg">
<g clip-path="url(#clip0)">
<path d="M15.1319 12.113L21.8189 5.01713C22.5577 4.23312 22.5577 2.96203 21.8189 2.17924L20.9274 1.23328C20.1884 0.44902 18.9905 0.44902 18.2528 1.23328L11.5661 8.32886L4.87915 1.23181C4.14031 0.447795 2.94247 0.447795 2.20478 1.23181L1.31194 2.17777C0.573103 2.96203 0.573103 4.23312 1.31194 5.01591L8.00006 12.113L1.31333 19.2085C0.574257 19.9928 0.574257 21.2639 1.31333 22.0467L2.20478 22.9926C2.94362 23.7766 4.14147 23.7766 4.87915 22.9926L11.5661 15.8968L18.2528 22.9926C18.9919 23.7766 20.1898 23.7766 20.9274 22.9926L21.8189 22.0467C22.5577 21.2624 22.5577 19.9913 21.8189 19.2085L15.1319 12.113Z" fill="black"/>
</g>
<defs>
<clipPath id="clip0">
<rect width="21.6153" height="22.9369" fill="white" transform="translate(0.757812 0.643799)"/>
</clipPath>
</defs>
</svg>
