<svg width="300" height="300" viewBox="0 0 300 300" fill="none" xmlns="http://www.w3.org/2000/svg">
<path fill-rule="evenodd" clip-rule="evenodd" d="M10.8398 31.9717V291.666C10.8398 293.827 12.6035 295.606 14.7668 295.606H77.4293H211.539H238.162C240.325 295.606 242.105 293.828 242.105 291.666C242.105 156.707 242.105 200.309 242.105 53.2817L242.089 50.8383C242.089 50.4891 242.039 50.2231 241.922 49.974H210.042C201.357 49.974 194.235 42.8596 194.235 34.166L194.269 4.59436C193.952 4.44495 193.653 4.39514 193.237 4.39514H190.292H14.7668C12.6035 4.39514 10.8398 6.15706 10.8398 8.31799V31.9717Z" fill="#F9F7F7"/>
<path fill-rule="evenodd" clip-rule="evenodd" d="M150.773 4.39453C180.99 35.4955 200.657 86.2107 200.657 143.492C200.657 155.909 199.726 168.011 197.978 179.662C197.413 183.403 196.764 187.109 196.032 190.75C195.15 195.155 194.152 199.477 193.037 203.715C182.588 243.46 162.105 276.206 135.998 295.605H211.539H238.162C240.325 295.605 242.105 293.827 242.105 291.665V247.632V189.32V53.2816L242.089 50.8383C242.089 50.4891 242.039 50.223 241.922 49.974L194.268 4.59375C193.952 4.44434 193.652 4.39453 193.236 4.39453H190.291H150.773Z" fill="#E2E2E2"/>
<path fill-rule="evenodd" clip-rule="evenodd" d="M194.268 4.59375L194.235 34.1654C194.235 42.859 201.356 49.9734 210.042 49.9734H241.922C241.656 49.4414 241.056 48.9762 239.859 47.8289L196.797 6.80449C195.466 5.5248 194.867 4.89316 194.268 4.59375Z" fill="#CECECE"/>
<path fill-rule="evenodd" clip-rule="evenodd" d="M247.945 38.0554L270.724 44.8541L276.548 25.3892C278.411 19.1226 274.818 12.4734 268.561 10.6119C262.288 8.73336 255.632 12.324 253.769 18.5906L247.945 38.0554Z" fill="#CECECE"/>
<path fill-rule="evenodd" clip-rule="evenodd" d="M190.807 240.751L193.086 260.881C193.32 262.194 193.303 262.261 194.251 261.23L207.196 245.638L221.14 228.85L208.045 212.958L188.378 219.076L190.807 240.751Z" fill="#838383"/>
<path fill-rule="evenodd" clip-rule="evenodd" d="M241.456 41.5459L188.378 219.075L204.751 223.962L221.14 228.85L270.325 64.3524L274.218 51.3369C275.05 48.5942 273.469 45.6686 270.724 44.8541L247.945 38.0555C245.2 37.241 242.272 38.8032 241.456 41.5459Z" fill="#FE9737"/>
<path fill-rule="evenodd" clip-rule="evenodd" d="M265.15 21.9815L259.327 41.4463L270.724 44.8541L276.548 25.3893C278.411 19.1227 274.818 12.4735 268.561 10.6119C266.481 9.99671 264.368 9.9639 262.404 10.4455C265.216 13.4373 266.398 17.7926 265.15 21.9815Z" fill="#B5ADB6"/>
<path fill-rule="evenodd" clip-rule="evenodd" d="M258.944 60.9609L212.038 217.812L209.759 225.458L221.14 228.849L270.325 64.3517L274.219 51.3363C275.051 48.5935 273.47 45.6679 270.725 44.8535L259.327 41.4457C262.073 42.2765 263.653 45.1857 262.838 47.9285L258.944 60.9609Z" fill="#F36B37"/>
<path fill-rule="evenodd" clip-rule="evenodd" d="M209.759 225.458L195.815 242.247L191.555 247.367L193.086 260.881C193.32 262.194 193.303 262.261 194.251 261.23L207.196 245.639L221.14 228.85L209.759 225.458Z" fill="#595959"/>
<path fill-rule="evenodd" clip-rule="evenodd" d="M171.805 61.1437H75.0996C73.4525 61.1437 72.1049 62.4902 72.1049 64.1355V81.8554C72.1049 83.5013 73.4525 84.8472 75.0996 84.8472H171.806C173.453 84.8472 174.801 83.5007 174.801 81.8554V64.1355C174.8 62.4902 173.453 61.1437 171.805 61.1437Z" fill="#97DA7B"/>
<path fill-rule="evenodd" clip-rule="evenodd" d="M171.805 61.1437H144.351C145.998 61.1437 147.346 62.4902 147.346 64.1355V81.8554C147.346 83.5013 145.998 84.8472 144.351 84.8472H171.805C173.452 84.8472 174.8 83.5007 174.8 81.8554V64.1355C174.8 62.4902 173.453 61.1437 171.805 61.1437Z" fill="#68CA44"/>
<path d="M293.027 67.8826C292.472 66.8566 291.534 66.0926 290.416 65.7592L275.796 61.3986L278.423 52.6119C279.168 50.1586 278.904 47.5588 277.683 45.2912C277.202 44.3994 276.594 43.6072 275.888 42.9246L280.76 26.6414C283.318 18.0369 278.408 8.95605 269.821 6.40195C265.659 5.15625 261.253 5.61094 257.415 7.68398C253.583 9.75469 250.792 13.183 249.558 17.3309L244.686 33.6146C241.512 34.2105 238.747 36.3814 237.516 39.5203L199.823 3.61875L199.163 2.9877C198.374 2.22949 197.633 1.52637 196.777 0.989648C196.738 0.963281 196.7 0.9375 196.661 0.912305C196.645 0.90293 196.629 0.892969 196.614 0.88418C196.276 0.669727 195.908 0.499219 195.516 0.383203C194.855 0.14707 194.118 0 193.236 0H14.7668C10.1783 0 6.44531 3.73125 6.44531 8.31738V134.067C6.44531 136.495 8.41289 138.462 10.8398 138.462C13.2668 138.462 15.2344 136.495 15.2344 134.067V8.78906H189.869L189.84 34.166C189.84 45.3059 198.902 54.3686 210.042 54.3686H233.035L214.966 114.79C214.271 117.115 215.592 119.563 217.918 120.259C220.244 120.957 222.691 119.633 223.387 117.308L243.094 51.4072C243.131 51.2994 243.163 51.1904 243.193 51.0791L245.669 42.7986C245.79 42.3902 246.271 42.1436 246.688 42.2666L269.474 49.0676C269.73 49.1432 269.872 49.3225 269.945 49.459C270.018 49.5949 270.089 49.81 270.008 50.0783L266.123 63.068C266.121 63.0779 266.116 63.0873 266.113 63.0973C266.11 63.1072 266.109 63.1172 266.106 63.1266L218.187 223.383L210.235 221.011L193.847 216.122L217.579 136.773C218.274 134.447 216.953 131.999 214.627 131.303C212.303 130.607 209.854 131.929 209.158 134.254L184.166 217.816C184.158 217.842 184.154 217.868 184.147 217.894C184.132 217.946 184.121 217.999 184.108 218.052C184.082 218.163 184.059 218.274 184.041 218.385C184.032 218.441 184.024 218.496 184.017 218.552C184.003 218.674 183.994 218.796 183.99 218.919C183.988 218.962 183.984 219.005 183.984 219.049C183.983 219.216 183.99 219.383 184.008 219.549C184.009 219.554 184.008 219.56 184.009 219.565L186.439 241.246L188.177 256.594C186.512 255.502 185.261 253.601 183.759 251.151C181.914 248.142 179.387 244.021 174.548 244.93C170.484 245.714 168.572 249.111 166.724 252.395C165.765 254.099 164.773 255.861 163.39 257.616C162.369 258.915 161.679 259.284 161.457 259.297C161.28 259.312 160.259 259.214 157.378 256.348C149.841 248.87 143.979 253.972 141.162 256.422C140.11 257.338 138.918 258.374 138.134 258.516C137.393 258.641 136.043 257.886 134.508 256.478C132.718 254.837 129.939 254.957 128.299 256.747C126.659 258.536 126.779 261.316 128.568 262.956C137.562 271.205 143.89 265.699 146.931 263.053C147.674 262.406 148.917 261.325 149.343 261.245C149.349 261.246 149.945 261.354 151.184 262.583C153.936 265.322 157.29 268.087 161.426 268.087C161.613 268.087 161.801 268.082 161.991 268.07C165.029 267.887 167.825 266.197 170.297 263.053C172.099 260.767 173.367 258.515 174.385 256.706C174.75 256.058 175.185 255.283 175.585 254.646C175.82 255.016 176.058 255.404 176.268 255.745C178.736 259.769 183.294 267.192 193.428 266.345C193.446 266.345 193.464 266.349 193.482 266.349C194.135 266.349 194.715 266.198 195.224 265.971C195.299 265.939 195.37 265.903 195.443 265.867C195.458 265.86 195.473 265.853 195.487 265.845C195.701 265.737 195.905 265.613 196.095 265.473C196.718 265.037 197.183 264.533 197.486 264.205C197.536 264.151 197.585 264.095 197.632 264.038L224.52 231.657C224.56 231.609 224.592 231.556 224.63 231.507C224.678 231.444 224.725 231.381 224.77 231.315C224.863 231.179 224.946 231.038 225.022 230.893C225.045 230.849 225.072 230.809 225.094 230.764C225.189 230.569 225.265 230.367 225.33 230.16C225.336 230.142 225.345 230.127 225.35 230.109L237.71 188.771V291.211H15.2344V154.38C15.2344 151.953 13.2668 149.986 10.8398 149.986C8.41289 149.986 6.44531 151.953 6.44531 154.38V291.666C6.44531 296.261 10.1783 300 14.7668 300H238.162C242.76 300 246.5 296.261 246.5 291.666V159.377L273.279 69.8191L283.69 72.9246L265.832 132.642C265.137 134.967 266.458 137.416 268.784 138.111C269.204 138.237 269.627 138.296 270.045 138.296C271.937 138.296 273.683 137.065 274.253 135.159L293.371 71.2289C293.705 70.1121 293.581 68.9086 293.027 67.8826ZM257.981 19.8428C258.547 17.9414 259.829 16.3693 261.594 15.4166C263.363 14.4598 265.39 14.2494 267.308 14.823C271.258 15.9984 273.513 20.1762 272.338 24.1289L267.773 39.3867L253.417 35.1018L257.981 19.8428ZM198.629 34.1707L198.651 14.6367L231.135 45.5789H210.041C203.749 45.5789 198.629 40.459 198.629 34.1707ZM196.468 251.681L193.485 225.185L213.509 231.159L196.468 251.681Z" fill="black"/>
<path d="M62.0695 118.625C62.0695 121.052 64.0371 123.019 66.4641 123.019H185.783C188.21 123.019 190.177 121.052 190.177 118.625C190.177 116.197 188.21 114.23 185.783 114.23H66.4641C64.0371 114.23 62.0695 116.198 62.0695 118.625Z" fill="black"/>
<path d="M66.464 157.179H178.511C180.938 157.179 182.906 155.212 182.906 152.784C182.906 150.357 180.938 148.39 178.511 148.39H66.464C64.0371 148.39 62.0695 150.357 62.0695 152.784C62.0695 155.212 64.0371 157.179 66.464 157.179Z" fill="black"/>
<path d="M66.4641 191.339H169.842C172.269 191.339 174.237 189.372 174.237 186.944C174.237 184.516 172.269 182.549 169.842 182.549H66.4641C64.0371 182.549 62.0695 184.516 62.0695 186.944C62.0695 189.372 64.0371 191.339 66.4641 191.339Z" fill="black"/>
<path d="M66.4641 225.498H137.263C139.69 225.498 141.657 223.531 141.657 221.104C141.657 218.676 139.69 216.709 137.263 216.709H66.4641C64.0371 216.709 62.0695 218.676 62.0695 221.104C62.0695 223.531 64.0371 225.498 66.4641 225.498Z" fill="black"/>
<path d="M171.805 89.2424C175.88 89.2424 179.195 85.9289 179.195 81.856V64.1367C179.195 60.0638 175.88 56.7504 171.805 56.7504H75.0996C71.025 56.7504 67.7104 60.0638 67.7104 64.1367V81.8554C67.7104 85.9283 71.025 89.2418 75.0996 89.2418H171.805V89.2424ZM76.4994 65.5388H170.406V80.4533H76.4994V65.5388Z" fill="black"/>
</svg>
