<svg width="195" height="188" viewBox="0 0 195 188" fill="none" xmlns="http://www.w3.org/2000/svg">
<g clip-path="url(#clip0)">
<path d="M142.303 33.0469H113.943V5.50781C113.943 2.42307 111.448 0 108.271 0H17.6989C8.28265 0 0.682922 7.3801 0.682922 16.5234V171.477C0.682922 180.619 8.28265 188 17.6989 188H130.959C140.376 188 147.975 180.619 147.975 171.477V38.5547C147.975 35.4699 145.48 33.0469 142.303 33.0469Z" fill="#CAE8F9"/>
<path d="M147.975 38.5547V171.477C147.975 180.619 140.376 188 130.959 188H74.2393V0H108.271C111.448 0 113.943 2.42307 113.943 5.50781V33.0469H142.303C145.48 33.0469 147.975 35.4699 147.975 38.5547Z" fill="#B7E0F6"/>
<path d="M147.975 44.0625H108.271C105.136 44.0625 102.599 41.599 102.599 38.5547V0H114.962C119.416 0 123.78 1.75332 126.927 4.81383L143.023 20.4498C146.169 23.5158 147.975 27.7432 147.975 32.0569V44.0625Z" fill="#CAE8F9"/>
<path d="M189.268 59.0437C182.916 52.7647 171.572 52.7647 165.219 59.0437L159.433 64.7721L155.349 68.6272C153.08 70.7202 153.08 74.2452 155.349 76.3382L163.403 84.1596L171.458 91.9804C173.499 94.1835 177.357 94.1835 179.399 91.9804L183.482 88.1253L189.268 82.3968C195.961 76.2277 195.961 65.212 189.268 59.0437Z" fill="#1689FC"/>
<path d="M124.606 121.833L112.922 110.486C112.696 110.266 112.469 110.266 112.242 110.486L111.903 110.707C111.221 111.368 110.767 112.139 110.54 112.91L102.486 136.373C101.691 138.576 102.372 140.669 103.847 141.991V142.101C105.435 143.533 107.59 144.084 109.633 143.313L133.795 135.491C134.59 135.271 135.384 134.83 136.064 134.169L136.291 133.949C136.518 133.729 136.518 133.509 136.291 133.288C132.548 129.544 128.464 125.578 124.606 121.833Z" fill="#FEDBAB"/>
<path d="M108.271 66.0938H29.0429C21.557 66.0938 21.557 55.0781 29.0429 55.0781H108.271C115.758 55.0781 115.758 66.0938 108.271 66.0938Z" fill="#17ACE8"/>
<path d="M85.5833 88.125H29.0429C21.557 88.125 21.557 77.1094 29.0429 77.1094H85.5833C93.0696 77.1094 93.0696 88.125 85.5833 88.125Z" fill="#17ACE8"/>
<path d="M85.5833 110.156H29.0429C21.557 110.156 21.557 99.1406 29.0429 99.1406H85.5833C93.0696 99.1406 93.0696 110.156 85.5833 110.156Z" fill="#17ACE8"/>
<path d="M85.5833 132.188H29.0429C21.557 132.188 21.557 121.172 29.0429 121.172H85.5833C93.0696 121.172 93.0696 132.188 85.5833 132.188Z" fill="#17ACE8"/>
<path d="M108.271 165.969H74.2393C66.7534 165.969 66.7534 154.953 74.2393 154.953H108.271C115.758 154.953 115.758 165.969 108.271 165.969Z" fill="#17ACE8"/>
<path d="M124.606 121.833C128.464 125.578 132.548 129.544 136.291 133.289C136.518 133.509 136.518 133.73 136.291 133.95L136.064 134.17C135.384 134.831 134.591 135.271 133.795 135.492L109.633 143.314C107.59 144.084 105.435 143.534 103.847 142.102V141.991L124.606 121.833Z" fill="#FEC478"/>
<path d="M189.268 82.3966L183.482 88.1251L179.398 91.9802C177.357 94.1833 173.499 94.1833 171.458 91.9802L163.403 84.1595L189.268 59.0435C195.961 65.2122 195.961 76.2278 189.268 82.3966Z" fill="#136EF1"/>
<path d="M183.482 88.1249L179.398 91.98C156.938 113.681 164.423 106.41 144.231 126.019C144.231 126.239 136.177 134.06 136.063 134.17C135.384 134.831 134.59 135.271 133.795 135.492L110.539 112.91C110.767 112.139 111.221 111.368 111.902 110.707C112.016 110.597 120.069 102.775 120.297 102.775C135.043 88.455 127.783 95.6155 155.349 68.6272L159.319 64.6616L183.482 88.1249Z" fill="#FD003A"/>
<path d="M183.482 88.1251L179.398 91.9802C156.938 113.681 164.423 106.411 144.231 126.019C144.231 126.239 136.177 134.06 136.063 134.17C135.384 134.831 134.59 135.272 133.795 135.492L122.224 124.256L171.458 76.4485L183.482 88.1251Z" fill="#E50027"/>
<path d="M85.5833 132.188H74.2393V121.172H85.5833C93.0696 121.172 93.0696 132.188 85.5833 132.188Z" fill="#1689FC"/>
<path d="M85.5833 110.156H74.2393V99.1406H85.5833C93.0696 99.1406 93.0696 110.156 85.5833 110.156Z" fill="#1689FC"/>
<path d="M85.5833 88.125H74.2393V77.1094H85.5833C93.0696 77.1094 93.0696 88.125 85.5833 88.125Z" fill="#1689FC"/>
<path d="M108.271 165.969H74.2393V154.953H108.271C115.758 154.953 115.758 165.969 108.271 165.969Z" fill="#1689FC"/>
<path d="M108.271 66.0938H74.2393V55.0781H108.271C115.758 55.0781 115.758 66.0938 108.271 66.0938Z" fill="#1689FC"/>
</g>
<defs>
<clipPath id="clip0">
<rect width="193.604" height="188" fill="white" transform="translate(0.682922)"/>
</clipPath>
</defs>
</svg>
