<svg width="70" height="70" viewBox="0 0 70 70" fill="none" xmlns="http://www.w3.org/2000/svg">
<path d="M34.9992 28.0396C31.1623 28.0396 28.0381 31.1623 28.0381 34.9992C28.0381 38.8377 31.1623 41.9619 34.9992 41.9619C38.8377 41.9619 41.9604 38.8377 41.9604 34.9992C41.9604 31.1623 38.8377 28.0396 34.9992 28.0396ZM34.9992 28.0396C31.1623 28.0396 28.0381 31.1623 28.0381 34.9992C28.0381 38.8377 31.1623 41.9619 34.9992 41.9619C38.8377 41.9619 41.9604 38.8377 41.9604 34.9992C41.9604 31.1623 38.8377 28.0396 34.9992 28.0396ZM46.596 16.6901H23.404C19.7022 16.6901 16.6901 19.7022 16.6901 23.404V46.596C16.6901 50.2978 19.7022 53.3099 23.404 53.3099H46.596C50.2978 53.3099 53.3099 50.2978 53.3099 46.596V23.404C53.3099 19.7022 50.2978 16.6901 46.596 16.6901ZM34.9992 47.0553C28.353 47.0553 22.9447 41.647 22.9447 34.9992C22.9447 28.353 28.353 22.9447 34.9992 22.9447C41.647 22.9447 47.0553 28.353 47.0553 34.9992C47.0553 41.647 41.647 47.0553 34.9992 47.0553ZM47.4423 25.4376C45.8695 25.4376 44.59 24.1582 44.59 22.5853C44.59 21.0124 45.8695 19.733 47.4423 19.733C49.0152 19.733 50.2947 21.0124 50.2947 22.5853C50.2947 24.1582 49.0152 25.4376 47.4423 25.4376ZM34.9992 28.0396C31.1623 28.0396 28.0381 31.1623 28.0381 34.9992C28.0381 38.8377 31.1623 41.9619 34.9992 41.9619C38.8377 41.9619 41.9604 38.8377 41.9604 34.9992C41.9604 31.1623 38.8377 28.0396 34.9992 28.0396ZM46.596 16.6901H23.404C19.7022 16.6901 16.6901 19.7022 16.6901 23.404V46.596C16.6901 50.2978 19.7022 53.3099 23.404 53.3099H46.596C50.2978 53.3099 53.3099 50.2978 53.3099 46.596V23.404C53.3099 19.7022 50.2978 16.6901 46.596 16.6901ZM34.9992 47.0553C28.353 47.0553 22.9447 41.647 22.9447 34.9992C22.9447 28.353 28.353 22.9447 34.9992 22.9447C41.647 22.9447 47.0553 28.353 47.0553 34.9992C47.0553 41.647 41.647 47.0553 34.9992 47.0553ZM47.4423 25.4376C45.8695 25.4376 44.59 24.1582 44.59 22.5853C44.59 21.0124 45.8695 19.733 47.4423 19.733C49.0152 19.733 50.2947 21.0124 50.2947 22.5853C50.2947 24.1582 49.0152 25.4376 47.4423 25.4376ZM34.9992 28.0396C31.1623 28.0396 28.0381 31.1623 28.0381 34.9992C28.0381 38.8377 31.1623 41.9619 34.9992 41.9619C38.8377 41.9619 41.9604 38.8377 41.9604 34.9992C41.9604 31.1623 38.8377 28.0396 34.9992 28.0396ZM0 0V70H70V0H0ZM58.4032 46.596C58.4032 53.1071 53.1071 58.4032 46.596 58.4032H23.404C16.8929 58.4032 11.5968 53.1071 11.5968 46.596V23.404C11.5968 16.8929 16.8929 11.5968 23.404 11.5968H46.596C53.1071 11.5968 58.4032 16.8929 58.4032 23.404V46.596ZM46.596 16.6901H23.404C19.7022 16.6901 16.6901 19.7022 16.6901 23.404V46.596C16.6901 50.2978 19.7022 53.3099 23.404 53.3099H46.596C50.2978 53.3099 53.3099 50.2978 53.3099 46.596V23.404C53.3099 19.7022 50.2978 16.6901 46.596 16.6901ZM34.9992 47.0553C28.353 47.0553 22.9447 41.647 22.9447 34.9992C22.9447 28.353 28.353 22.9447 34.9992 22.9447C41.647 22.9447 47.0553 28.353 47.0553 34.9992C47.0553 41.647 41.647 47.0553 34.9992 47.0553ZM47.4423 25.4376C45.8695 25.4376 44.59 24.1582 44.59 22.5853C44.59 21.0124 45.8695 19.733 47.4423 19.733C49.0152 19.733 50.2947 21.0124 50.2947 22.5853C50.2947 24.1582 49.0152 25.4376 47.4423 25.4376ZM34.9992 28.0396C31.1623 28.0396 28.0381 31.1623 28.0381 34.9992C28.0381 38.8377 31.1623 41.9619 34.9992 41.9619C38.8377 41.9619 41.9604 38.8377 41.9604 34.9992C41.9604 31.1623 38.8377 28.0396 34.9992 28.0396ZM34.9992 28.0396C31.1623 28.0396 28.0381 31.1623 28.0381 34.9992C28.0381 38.8377 31.1623 41.9619 34.9992 41.9619C38.8377 41.9619 41.9604 38.8377 41.9604 34.9992C41.9604 31.1623 38.8377 28.0396 34.9992 28.0396ZM34.9992 28.0396C31.1623 28.0396 28.0381 31.1623 28.0381 34.9992C28.0381 38.8377 31.1623 41.9619 34.9992 41.9619C38.8377 41.9619 41.9604 38.8377 41.9604 34.9992C41.9604 31.1623 38.8377 28.0396 34.9992 28.0396ZM46.596 16.6901H23.404C19.7022 16.6901 16.6901 19.7022 16.6901 23.404V46.596C16.6901 50.2978 19.7022 53.3099 23.404 53.3099H46.596C50.2978 53.3099 53.3099 50.2978 53.3099 46.596V23.404C53.3099 19.7022 50.2978 16.6901 46.596 16.6901ZM34.9992 47.0553C28.353 47.0553 22.9447 41.647 22.9447 34.9992C22.9447 28.353 28.353 22.9447 34.9992 22.9447C41.647 22.9447 47.0553 28.353 47.0553 34.9992C47.0553 41.647 41.647 47.0553 34.9992 47.0553ZM47.4423 25.4376C45.8695 25.4376 44.59 24.1582 44.59 22.5853C44.59 21.0124 45.8695 19.733 47.4423 19.733C49.0152 19.733 50.2947 21.0124 50.2947 22.5853C50.2947 24.1582 49.0152 25.4376 47.4423 25.4376ZM34.9992 28.0396C31.1623 28.0396 28.0381 31.1623 28.0381 34.9992C28.0381 38.8377 31.1623 41.9619 34.9992 41.9619C38.8377 41.9619 41.9604 38.8377 41.9604 34.9992C41.9604 31.1623 38.8377 28.0396 34.9992 28.0396ZM34.9992 28.0396C31.1623 28.0396 28.0381 31.1623 28.0381 34.9992C28.0381 38.8377 31.1623 41.9619 34.9992 41.9619C38.8377 41.9619 41.9604 38.8377 41.9604 34.9992C41.9604 31.1623 38.8377 28.0396 34.9992 28.0396ZM34.9992 28.0396C31.1623 28.0396 28.0381 31.1623 28.0381 34.9992C28.0381 38.8377 31.1623 41.9619 34.9992 41.9619C38.8377 41.9619 41.9604 38.8377 41.9604 34.9992C41.9604 31.1623 38.8377 28.0396 34.9992 28.0396ZM46.596 16.6901H23.404C19.7022 16.6901 16.6901 19.7022 16.6901 23.404V46.596C16.6901 50.2978 19.7022 53.3099 23.404 53.3099H46.596C50.2978 53.3099 53.3099 50.2978 53.3099 46.596V23.404C53.3099 19.7022 50.2978 16.6901 46.596 16.6901ZM34.9992 47.0553C28.353 47.0553 22.9447 41.647 22.9447 34.9992C22.9447 28.353 28.353 22.9447 34.9992 22.9447C41.647 22.9447 47.0553 28.353 47.0553 34.9992C47.0553 41.647 41.647 47.0553 34.9992 47.0553ZM47.4423 25.4376C45.8695 25.4376 44.59 24.1582 44.59 22.5853C44.59 21.0124 45.8695 19.733 47.4423 19.733C49.0152 19.733 50.2947 21.0124 50.2947 22.5853C50.2947 24.1582 49.0152 25.4376 47.4423 25.4376ZM34.9992 28.0396C31.1623 28.0396 28.0381 31.1623 28.0381 34.9992C28.0381 38.8377 31.1623 41.9619 34.9992 41.9619C38.8377 41.9619 41.9604 38.8377 41.9604 34.9992C41.9604 31.1623 38.8377 28.0396 34.9992 28.0396Z" fill="#C536A4"/>
</svg>
