<svg width="300" height="300" viewBox="0 0 300 300" fill="none" xmlns="http://www.w3.org/2000/svg">
<path d="M60.0078 25.0089V295H260.001V25.0089H60.0078Z" fill="#348FD9"/>
<path d="M250.002 60.0078L215.003 25.0089H60.0078V285H250.002V60.0078Z" fill="#3086CD"/>
<path d="M40.0085 275.001H240.002V50.0082L195.003 5.00964H40.0085V275.001Z" fill="#60D1E0"/>
<path d="M240.002 50.0082H195.003V5.00964L240.002 50.0082Z" fill="#9FE4ED"/>
<path d="M240.002 110.006L75.0073 275.001H240.002V110.006Z" fill="#5AC6D4"/>
<path d="M220.003 255.001H120.006C117.245 255.001 115.006 252.763 115.006 250.002V210.003C115.006 207.242 117.245 205.003 120.006 205.003H220.003C222.764 205.003 225.002 207.242 225.002 210.003V250.002C225.002 252.763 222.764 255.001 220.003 255.001ZM125.006 245.002H215.003V215.003H125.006V245.002Z" fill="#348FD9"/>
<path d="M135.005 225.002H155.005V235.002H135.005V225.002Z" fill="#348FD9"/>
<path d="M165.004 225.002H205.003V235.002H165.004V225.002Z" fill="#348FD9"/>
<path d="M155.005 165.004L185.001 135.008L254.999 205.006L225.002 235.002L155.005 165.004Z" fill="#E0E0DE"/>
<path d="M265.001 90.0068C248.434 90.0068 235.002 103.439 235.002 120.006V122.506L190.004 170.004L215.003 195.003L262.501 150.005H265.001C281.57 150.005 295 136.573 295 120.006C295 103.439 281.57 90.0068 265.001 90.0068Z" fill="#95573A"/>
<path d="M140.008 180.001L155.007 165.002L225.005 235L210.005 249.999L140.008 180.001Z" fill="#EBEBE9"/>
<path d="M277.291 92.6556C256.576 145.039 224.211 170.048 202.559 182.56L215.003 195.003L262.501 150.005H265.001C279.131 149.988 291.336 140.11 294.297 126.292C297.258 112.474 290.174 98.4636 277.291 92.6556Z" fill="#8F4D2E"/>
<path d="M159.35 52.0076C160.915 48.7533 160.254 44.8667 157.7 42.3131C155.146 39.7595 151.26 39.0979 148.005 40.6628C146.804 37.2669 143.594 34.994 139.991 34.994C136.387 34.994 133.174 37.2669 131.976 40.6628C128.724 39.1199 124.852 39.7912 122.31 42.34C119.769 44.8887 119.107 48.7607 120.66 52.0076C117.264 53.2088 114.991 56.4191 114.991 60.0225C114.991 63.6259 117.264 66.8387 120.66 68.0374C119.117 71.2892 119.789 75.1612 122.337 77.7026C124.886 80.244 128.758 80.9056 132.005 79.3529C133.206 82.7488 136.416 85.0217 140.02 85.0217C143.623 85.0217 146.836 82.7488 148.035 79.3529C151.287 80.8958 155.159 80.2245 157.7 77.6757C160.241 75.127 160.903 71.255 159.35 68.0081C162.727 66.7947 164.978 63.5942 164.978 60.0078C164.978 56.4215 162.727 53.221 159.35 52.0076Z" fill="#FFB531"/>
<path d="M125.006 90.0068C125.02 69.8268 113.976 51.263 96.2346 41.6466C78.4911 32.0327 56.9073 32.914 40.0085 43.9439V136.07C56.9073 147.1 78.4911 147.981 96.2346 138.367C113.976 128.751 125.02 110.187 125.006 90.0068Z" fill="#5AC6D4"/>
<path d="M205.003 50.0082H240.002V60.0079H205.003V50.0082Z" fill="#5AC6D4"/>
<path d="M95.0067 145.005H145.005V155.005H95.0067V145.005Z" fill="#3FB7C7"/>
<path d="M65.0076 165.004H125.006V175.004H65.0076V165.004Z" fill="#3FB7C7"/>
<path d="M65.0076 125.006H170.004V135.005H65.0076V125.006Z" fill="#3FB7C7"/>
<path d="M65.0076 185.004H95.0067V195.003H65.0076V185.004Z" fill="#3FB7C7"/>
<path d="M65.0076 205.003H105.006V215.003H65.0076V205.003Z" fill="#3FB7C7"/>
<path d="M65.0076 225.002H105.006V235.002H65.0076V225.002Z" fill="#3FB7C7"/>
<path d="M65.0076 245.002H105.006V255.001H65.0076V245.002Z" fill="#3FB7C7"/>
<path d="M65.0076 145.005H85.007V155.005H65.0076V145.005Z" fill="#3FB7C7"/>
<path d="M105.006 185.004H125.006V195.003H105.006V185.004Z" fill="#3FB7C7"/>
<path d="M105.006 100.006H125.006V110.006H105.006V100.006Z" fill="#3FB7C7"/>
<path d="M135.005 100.006H175.004V110.006H135.005V100.006Z" fill="#3FB7C7"/>
<path d="M115.006 80.0071C115.006 110.382 90.3828 135.005 60.0078 135.005C29.6328 135.005 5.00958 110.382 5.00958 80.0071C5.00958 49.6321 29.6328 25.0089 60.0078 25.0089C90.3828 25.0089 115.006 49.6321 115.006 80.0071Z" fill="#7EB457"/>
<path d="M40.0084 110.006C38.6828 110.006 37.4109 109.479 36.4734 108.541L21.4739 93.542L28.544 86.4719L40.0084 97.9363L86.4717 51.473L93.5418 58.5431L43.5435 108.541C42.606 109.479 41.3341 110.006 40.0084 110.006Z" fill="#FFB531"/>
<path d="M123.866 78.8381C123.124 75.2346 122.018 71.7166 120.565 68.3376C118.888 72.1707 120.296 76.6555 123.866 78.8381Z" fill="#F98500"/>
<path d="M120.316 67.8326C118.902 64.632 117.189 61.5729 115.196 58.6969C114.532 62.569 116.666 66.3776 120.316 67.8326Z" fill="#F98500"/>
<path d="M265.001 75.0074V25.009C265.001 22.2479 262.762 20.0092 260.001 20.0092H240.002V30.0088H255.001V75.0074H265.001Z" fill="black"/>
<path d="M35.0086 150.005V275.001C35.0086 277.762 37.2473 280.001 40.0084 280.001H240.002C242.763 280.001 245.002 277.762 245.002 275.001V240.002H235.002V270.001H45.0083V150.005H35.0086Z" fill="black"/>
<path d="M197.074 0.510238C196.917 0.439439 196.768 0.400377 196.607 0.344227C196.19 0.200189 195.755 0.114742 195.313 0.0854466C195.204 0.0659161 195.108 0.00976562 195.003 0.00976562H40.0084C37.2473 0.00976562 35.0086 2.24846 35.0086 5.0096V15.0093H45.0083V10.0094H190.004V50.0081C190.004 52.7693 192.242 55.008 195.003 55.008H235.002V80.0071H245.002V50.0081C245.002 49.9031 244.948 49.8079 244.941 49.6981C244.914 49.2562 244.826 48.8216 244.682 48.4042C244.626 48.243 244.587 48.0941 244.516 47.9379C244.274 47.3935 243.935 46.8979 243.517 46.4731L198.519 1.47456C198.097 1.07174 197.608 0.744605 197.074 0.510238ZM227.932 45.0083H200.003V17.0795L227.932 45.0083Z" fill="black"/>
<path d="M115.006 210.003V250.002C115.006 252.763 117.245 255.001 120.006 255.001H185.004V245.002H125.006V215.003H150.005V205.003H120.006C117.245 205.003 115.006 207.242 115.006 210.003Z" fill="black"/>
<path d="M135.005 225.002H165.004V235.002H135.005V225.002Z" fill="black"/>
<path d="M265.001 85.007C245.683 85.0314 230.027 100.688 230.002 120.006V120.506L204.503 147.424L188.539 131.461C186.586 129.507 183.422 129.507 181.469 131.461L136.47 176.459C134.52 178.412 134.52 181.576 136.47 183.529L206.468 253.527C208.421 255.477 211.585 255.477 213.538 253.527L228.537 238.527L255.001 212.073V290H60.0078V300H260.001C262.762 300 265.001 297.761 265.001 295V175.004H255.001V197.933L237.573 180.504L264.501 155.005H265.001C284.332 155.005 300 139.336 300 120.006C300 100.675 284.332 85.007 265.001 85.007ZM210.003 242.931L147.075 180.004L155.005 172.074L217.932 235.002L210.003 242.931ZM247.931 205.003L225.002 227.932L162.075 165.004L185.004 142.075L197.623 154.695L186.373 166.564C184.493 168.534 184.537 171.645 186.469 173.564L211.468 198.563C213.382 200.477 216.472 200.518 218.438 198.658L230.312 187.408L247.931 205.003ZM265.001 145.005H262.501C261.222 145.005 259.992 145.496 259.061 146.375L215.098 188.004L197.003 169.909L238.652 125.946C239.526 125.013 240.007 123.783 240.002 122.506V120.006C240.002 106.2 251.195 95.0066 265.001 95.0066C278.807 95.0066 290 106.2 290 120.006C290 133.812 278.807 145.005 265.001 145.005Z" fill="black"/>
<path d="M95.0067 145.005H145.005V155.005H95.0067V145.005Z" fill="black"/>
<path d="M65.0076 165.004H125.006V175.004H65.0076V165.004Z" fill="black"/>
<path d="M110.006 125.006H170.004V135.005H110.006V125.006Z" fill="black"/>
<path d="M65.0076 185.004H95.0067V195.003H65.0076V185.004Z" fill="black"/>
<path d="M65.0076 205.003H105.006V215.003H65.0076V205.003Z" fill="black"/>
<path d="M65.0076 225.002H105.006V235.002H65.0076V225.002Z" fill="black"/>
<path d="M65.0076 245.002H105.006V255.002H65.0076V245.002Z" fill="black"/>
<path d="M65.0076 145.005H85.007V155.005H65.0076V145.005Z" fill="black"/>
<path d="M105.006 185.004H125.006V195.003H105.006V185.004Z" fill="black"/>
<path d="M125.006 100.006H175.004V110.006H125.006V100.006Z" fill="black"/>
<path d="M60.0078 140.005C92.2992 139.969 118.771 114.379 119.901 82.1067C122.601 84.3673 126.09 85.4586 129.595 85.1363C132.171 88.2222 135.984 90.0068 140.005 90.0068C144.026 90.0068 147.839 88.2222 150.415 85.1363C154.419 85.4952 158.374 84.0597 161.215 81.218C164.057 78.3763 165.493 74.4214 165.134 70.4176C168.222 67.842 170.004 64.0286 170.004 60.0078C170.004 55.9869 168.222 52.1736 165.134 49.598C165.493 45.5942 164.057 41.6392 161.215 38.7975C158.374 35.9558 154.419 34.5203 150.415 34.8792C147.839 31.7934 144.026 30.0088 140.005 30.0088C135.984 30.0088 132.171 31.7934 129.595 34.8792C125.592 34.5203 121.637 35.9558 118.795 38.7975C115.953 41.6392 114.518 45.5942 114.877 49.598C114.137 50.2083 113.466 50.8992 112.877 51.6584C99.0056 25.7853 68.4524 13.7495 40.6627 23.2097C12.8731 32.6722 -3.99156 60.85 0.805651 89.8115C5.60286 118.773 30.6533 140.01 60.0078 140.005ZM122.335 56.7071C123.668 56.2335 124.737 55.2179 125.279 53.9118C125.819 52.6057 125.782 51.1311 125.177 49.8543C124.527 48.5116 124.798 46.9076 125.85 45.853C126.905 44.8008 128.509 44.5298 129.852 45.1792C131.129 45.7846 132.603 45.8212 133.909 45.2817C135.215 44.7397 136.231 43.6704 136.705 42.3375C137.2 40.9386 138.521 40.0035 140.005 40.0035C141.49 40.0035 142.81 40.9386 143.306 42.3375C143.779 43.6704 144.795 44.7397 146.101 45.2817C147.407 45.8212 148.882 45.7846 150.161 45.1792C151.501 44.5298 153.105 44.8008 154.16 45.853C155.212 46.9076 155.483 48.5116 154.834 49.8543C154.228 51.1311 154.192 52.6057 154.731 53.9118C155.273 55.2179 156.343 56.2335 157.676 56.7071C159.074 57.2027 160.009 58.5234 160.009 60.0078C160.009 61.4921 159.074 62.8129 157.676 63.3084C156.343 63.7821 155.273 64.7977 154.731 66.1038C154.192 67.4099 154.228 68.8844 154.834 70.1637C155.525 71.4991 155.244 73.1323 154.145 74.1626C153.11 75.2514 151.484 75.5297 150.144 74.8535C148.867 74.2456 147.393 74.209 146.087 74.7509C144.78 75.2905 143.765 76.3598 143.291 77.6927C142.796 79.0916 141.472 80.0266 139.991 80.0266C138.506 80.0266 137.185 79.0916 136.69 77.6927C136.216 76.3573 135.198 75.288 133.89 74.7485C133.282 74.4995 132.632 74.3701 131.976 74.3677C131.234 74.3701 130.501 74.541 129.835 74.8681C128.494 75.5151 126.89 75.2441 125.836 74.1919C124.784 73.1372 124.513 71.5333 125.162 70.193C125.767 68.9162 125.804 67.4416 125.264 66.1355C124.722 64.827 123.653 63.8114 122.32 63.3377C120.921 62.8446 119.986 61.5214 119.986 60.0371C119.986 58.5552 120.921 57.232 122.32 56.7388L122.335 56.7071ZM60.0078 30.0088C87.6217 30.0088 110.006 52.3933 110.006 80.0071C110.006 107.621 87.6217 130.005 60.0078 130.005C32.394 130.005 10.0095 107.621 10.0095 80.0071C10.0387 52.4055 32.4062 30.0381 60.0078 30.0088Z" fill="black"/>
<path d="M36.4734 108.541C38.4264 110.492 41.5904 110.492 43.5435 108.541L93.5418 58.5431L86.4717 51.473L40.0084 97.9363L28.544 86.4719L21.4739 93.542L36.4734 108.541Z" fill="black"/>
</svg>
