<svg width="512" height="512" viewBox="0 0 512 512" fill="none" xmlns="http://www.w3.org/2000/svg">
<path d="M298.667 85.3333H128C123.29 85.3333 119.467 81.5189 119.467 76.8V8.53333C119.467 3.8144 123.29 0 128 0H298.667C303.377 0 307.2 3.8144 307.2 8.53333V76.8C307.2 81.5189 303.377 85.3333 298.667 85.3333ZM136.533 68.2667H290.133V17.0667H136.533V68.2667Z" fill="#FEED01"/>
<path d="M375.467 477.867H42.6666C37.9562 477.867 34.1333 474.052 34.1333 469.333V59.7333C34.1333 55.0144 37.9562 51.2 42.6666 51.2H128C132.71 51.2 136.533 55.0144 136.533 59.7333V68.2666H290.133V59.7333C290.133 55.0144 293.956 51.2 298.667 51.2H375.467C380.177 51.2 384 55.0144 384 59.7333V469.333C384 474.052 380.177 477.867 375.467 477.867ZM51.2 460.8H366.933V68.2666H307.2V76.8C307.2 81.5189 303.377 85.3333 298.667 85.3333H128C123.29 85.3333 119.467 81.5189 119.467 76.8V68.2666H51.2V460.8Z" fill="#FEED01"/>
<path d="M387.2 512H30.9333C13.8752 512 0 498.125 0 481.067V48C0 30.9419 13.8752 17.0667 30.9333 17.0667H128C132.71 17.0667 136.533 20.8811 136.533 25.6V68.2667H290.133V25.6C290.133 20.8811 293.956 17.0667 298.667 17.0667H387.2C404.258 17.0667 418.133 30.9419 418.133 48V481.067C418.133 498.125 404.258 512 387.2 512ZM30.9333 34.1333C23.2875 34.1333 17.0667 40.3541 17.0667 48V481.067C17.0667 488.713 23.2875 494.933 30.9333 494.933H387.2C394.846 494.933 401.067 488.713 401.067 481.067V48C401.067 40.3541 394.846 34.1333 387.2 34.1333H307.2V76.8C307.2 81.5189 303.377 85.3333 298.667 85.3333H128C123.29 85.3333 119.467 81.5189 119.467 76.8V34.1333H30.9333Z" fill="#FEED01"/>
<path d="M477.867 486.4C475.179 486.4 472.653 485.137 471.04 482.987L445.44 448.853C444.331 447.377 443.733 445.585 443.733 443.733V38.6645C443.733 26.7605 453.419 17.0667 465.331 17.0667H490.402C502.315 17.0667 512 26.7605 512 38.6645V443.733C512 445.585 511.403 447.377 510.293 448.853L484.693 482.987C483.081 485.137 480.555 486.4 477.867 486.4ZM460.8 440.892L477.867 463.642L494.933 440.892V38.6645C494.933 36.1643 492.902 34.1333 490.402 34.1333H465.331C462.831 34.1333 460.8 36.1643 460.8 38.6645V440.892ZM503.467 443.733H503.552H503.467Z" fill="#FEED01"/>
<path d="M477.611 512C472.9 512 469.077 508.186 469.077 503.467V477.867C469.077 473.148 472.9 469.333 477.611 469.333C482.321 469.333 486.144 473.148 486.144 477.867V503.467C486.144 508.186 482.321 512 477.611 512Z" fill="#FEED01"/>
<path d="M503.467 85.3333H452.267C447.556 85.3333 443.733 81.5189 443.733 76.8V38.6645C443.733 26.7605 453.419 17.0667 465.331 17.0667H490.402C502.315 17.0667 512 26.7605 512 38.6645V76.8C512 81.5189 508.177 85.3333 503.467 85.3333ZM460.8 68.2667H494.933V38.6645C494.933 36.1643 492.902 34.1333 490.402 34.1333H465.331C462.831 34.1333 460.8 36.1643 460.8 38.6645V68.2667Z" fill="#FEED01"/>
<path d="M477.611 486.4C474.923 486.4 472.397 485.137 470.784 482.987L445.184 448.853C444.075 447.377 443.477 445.585 443.477 443.733V392.533C443.477 387.814 447.3 384 452.011 384H503.211C507.921 384 511.744 387.814 511.744 392.533V443.733C511.744 445.585 511.147 447.377 510.037 448.853L484.437 482.987C482.824 485.137 480.299 486.4 477.611 486.4ZM460.544 440.892L477.611 463.642L494.677 440.892V401.067H460.544V440.892Z" fill="#FEED01"/>
<path d="M503.467 264.533H452.267C447.556 264.533 443.733 260.719 443.733 256V187.733C443.733 183.014 447.556 179.2 452.267 179.2H503.467C508.177 179.2 512 183.014 512 187.733V256C512 260.719 508.177 264.533 503.467 264.533ZM460.8 247.467H494.933V196.267H460.8V247.467Z" fill="#FEED01"/>
<path d="M213.333 298.667C161.579 298.667 119.467 256.555 119.467 204.8C119.467 153.045 161.579 110.933 213.333 110.933C265.088 110.933 307.2 153.045 307.2 204.8C307.2 256.555 265.088 298.667 213.333 298.667ZM213.333 128C170.982 128 136.533 162.449 136.533 204.8C136.533 247.151 170.982 281.6 213.333 281.6C255.684 281.6 290.133 247.151 290.133 204.8C290.133 162.449 255.684 128 213.333 128Z" fill="#FEED01"/>
<path d="M230.4 264.533H196.267C191.556 264.533 187.733 260.719 187.733 256V230.4H162.133C157.423 230.4 153.6 226.586 153.6 221.867V187.733C153.6 183.014 157.423 179.2 162.133 179.2H187.733V153.6C187.733 148.881 191.556 145.067 196.267 145.067H230.4C235.11 145.067 238.933 148.881 238.933 153.6V179.2H264.533C269.244 179.2 273.067 183.014 273.067 187.733V221.867C273.067 226.586 269.244 230.4 264.533 230.4H238.933V256C238.933 260.719 235.11 264.533 230.4 264.533ZM204.8 247.467H221.867V221.867C221.867 217.148 225.69 213.333 230.4 213.333H256V196.267H230.4C225.69 196.267 221.867 192.452 221.867 187.733V162.133H204.8V187.733C204.8 192.452 200.977 196.267 196.267 196.267H170.667V213.333H196.267C200.977 213.333 204.8 217.148 204.8 221.867V247.467Z" fill="#FEED01"/>
<path d="M290.133 392.533H187.733C183.023 392.533 179.2 388.719 179.2 384C179.2 379.281 183.023 375.467 187.733 375.467H290.133C294.844 375.467 298.667 379.281 298.667 384C298.667 388.719 294.844 392.533 290.133 392.533Z" fill="#FEED01"/>
<path d="M153.6 392.533H76.7999C72.0895 392.533 68.2666 388.719 68.2666 384C68.2666 379.281 72.0895 375.467 76.7999 375.467H153.6C158.31 375.467 162.133 379.281 162.133 384C162.133 388.719 158.31 392.533 153.6 392.533Z" fill="#FEED01"/>
<path d="M341.333 392.533H324.267C319.556 392.533 315.733 388.719 315.733 384C315.733 379.281 319.556 375.467 324.267 375.467H341.333C346.044 375.467 349.867 379.281 349.867 384C349.867 388.719 346.044 392.533 341.333 392.533Z" fill="#FEED01"/>
<path d="M230.4 349.867H128C123.29 349.867 119.467 346.052 119.467 341.333C119.467 336.614 123.29 332.8 128 332.8H230.4C235.11 332.8 238.933 336.614 238.933 341.333C238.933 346.052 235.11 349.867 230.4 349.867Z" fill="#FEED01"/>
<path d="M341.333 349.867H264.533C259.823 349.867 256 346.052 256 341.333C256 336.614 259.823 332.8 264.533 332.8H341.333C346.044 332.8 349.867 336.614 349.867 341.333C349.867 346.052 346.044 349.867 341.333 349.867Z" fill="#FEED01"/>
<path d="M93.8666 349.867H76.7999C72.0895 349.867 68.2666 346.052 68.2666 341.333C68.2666 336.614 72.0895 332.8 76.7999 332.8H93.8666C98.577 332.8 102.4 336.614 102.4 341.333C102.4 346.052 98.577 349.867 93.8666 349.867Z" fill="#FEED01"/>
<path d="M230.4 435.2H128C123.29 435.2 119.467 431.386 119.467 426.667C119.467 421.948 123.29 418.133 128 418.133H230.4C235.11 418.133 238.933 421.948 238.933 426.667C238.933 431.386 235.11 435.2 230.4 435.2Z" fill="#FEED01"/>
<path d="M341.333 435.2H264.533C259.823 435.2 256 431.386 256 426.667C256 421.948 259.823 418.133 264.533 418.133H341.333C346.044 418.133 349.867 421.948 349.867 426.667C349.867 431.386 346.044 435.2 341.333 435.2Z" fill="#FEED01"/>
<path d="M93.8666 435.2H76.7999C72.0895 435.2 68.2666 431.386 68.2666 426.667C68.2666 421.948 72.0895 418.133 76.7999 418.133H93.8666C98.577 418.133 102.4 421.948 102.4 426.667C102.4 431.386 98.577 435.2 93.8666 435.2Z" fill="#FEED01"/>
</svg>
