<svg width="194" height="194" viewBox="0 0 194 194" fill="none" xmlns="http://www.w3.org/2000/svg">
<path d="M175.055 9.09375H55.3203C53.2277 9.09375 51.5312 10.7902 51.5312 12.8828V181.117C51.5312 183.21 53.2277 184.906 55.3203 184.906H175.055C177.147 184.906 178.844 183.21 178.844 181.117V12.8828C178.844 10.7902 177.147 9.09375 175.055 9.09375Z" fill="#31CAD0"/>
<path d="M63.6562 24.25H166.719V169.75H63.6562V24.25Z" fill="#D6F4F6"/>
<path d="M115.188 81.8438C125.232 81.8438 133.375 73.7009 133.375 63.6562C133.375 53.6116 125.232 45.4688 115.188 45.4688C105.143 45.4688 97 53.6116 97 63.6562C97 73.7009 105.143 81.8438 115.188 81.8438Z" fill="#31CAD0"/>
<path d="M124.281 60.625H118.219V54.5625H112.156V60.625H106.094V66.6875H112.156V72.75H118.219V66.6875H124.281V60.625Z" fill="#F7FDFD"/>
<path d="M90.9375 97H136.406V103.062H90.9375V97Z" fill="#31CAD0"/>
<path d="M142.469 97H157.625V103.062H142.469V97Z" fill="#31CAD0"/>
<path d="M97 127.312H136.406V133.375H97V127.312Z" fill="#31CAD0"/>
<path d="M142.469 127.312H157.625V133.375H142.469V127.312Z" fill="#31CAD0"/>
<path d="M90.9375 112.156H109.125V118.219H90.9375V112.156Z" fill="#31CAD0"/>
<path d="M115.188 112.156H157.625V118.219H115.188V112.156Z" fill="#31CAD0"/>
<path d="M81.8438 9.09375H148.531V29.5547C148.531 30.5596 148.132 31.5234 147.421 32.234C146.711 32.9445 145.747 33.3438 144.742 33.3438H85.6328C84.6279 33.3438 83.6641 32.9445 82.9535 32.234C82.243 31.5234 81.8438 30.5596 81.8438 29.5547V9.09375Z" fill="#FDBF44"/>
<path d="M90.9375 18.1875H97V24.25H90.9375V18.1875Z" fill="#FFFCF8"/>
<path d="M133.375 18.1875H139.438V24.25H133.375V18.1875Z" fill="#FFFCF8"/>
<path d="M103.062 18.1875H127.312V24.25H103.062V18.1875Z" fill="#FFFCF8"/>
<path d="M115.188 142.469H157.625V148.531H115.188V142.469Z" fill="#31CAD0"/>
<path d="M78.0547 184.906H18.9453C17.9404 184.906 16.9766 184.507 16.266 183.796C15.5555 183.086 15.1562 182.122 15.1562 181.117V118.219L21.2188 112.156V97H75.7812V112.156L81.8438 118.219V181.117C81.8438 182.122 81.4445 183.086 80.734 183.796C80.0234 184.507 79.0596 184.906 78.0547 184.906Z" fill="#E64B30"/>
<path d="M66.6875 142.469H54.5625V130.344H42.4375V142.469H30.3125V154.594H42.4375V166.719H54.5625V154.594H66.6875V142.469Z" fill="#FFFCFC"/>
<path d="M21.2188 106.094H63.6562V112.156H21.2188V106.094Z" fill="#CC432B"/>
<path d="M78.0547 75.7812H18.9453C16.8527 75.7812 15.1562 77.4777 15.1562 79.5703V96.2422C15.1562 98.3348 16.8527 100.031 18.9453 100.031H78.0547C80.1473 100.031 81.8438 98.3348 81.8438 96.2422V79.5703C81.8438 77.4777 80.1473 75.7812 78.0547 75.7812Z" fill="#FDBF44"/>
<path d="M93.9688 184.906C104.013 184.906 112.156 176.763 112.156 166.719C112.156 156.674 104.013 148.531 93.9688 148.531C83.9241 148.531 75.7812 156.674 75.7812 166.719C75.7812 176.763 83.9241 184.906 93.9688 184.906Z" fill="#FDBF44"/>
<path d="M81.4993 153.479L101.395 183.325C103.252 182.492 104.956 181.354 106.437 179.958L86.5422 150.112C84.685 150.945 82.9804 152.083 81.4993 153.479Z" fill="#CC9A37"/>
</svg>
