<svg width="100" height="100" viewBox="0 0 100 100" fill="none" xmlns="http://www.w3.org/2000/svg">
<path d="M55.5557 55.5555H44.4445V66.6667H55.5557V55.5555Z" fill="#FEED01"/>
<path d="M88.8888 0H11.1112C4.97214 0 0 4.97214 0 11.1112V88.8891C0 95.0279 4.97214 100 11.1112 100H88.8891C95.0279 100 100 95.0279 100 88.8888V11.1112C100 4.97214 95.0279 0 88.8888 0ZM66.6667 33.3333H44.4445V44.4445H55.5557C61.6945 44.4445 66.6669 49.4167 66.6669 55.5557V66.6667C66.6669 72.8055 61.6948 77.7779 55.5557 77.7779H44.4445C38.3055 77.7779 33.3333 72.8055 33.3333 66.6667V33.3333C33.3333 27.1945 38.3055 22.2221 44.4445 22.2221H66.6667V33.3333Z" fill="#FEED01"/>
</svg>
