<svg width="70" height="70" viewBox="0 0 70 70" fill="none" xmlns="http://www.w3.org/2000/svg">
<g clip-path="url(#clip0)">
<path d="M34.9996 70.0001C54.3293 70.0001 69.9992 54.3302 69.9992 35.0005C69.9992 15.6708 54.3293 0.000915527 34.9996 0.000915527C15.6698 0.000915527 0 15.6708 0 35.0005C0 54.3302 15.6698 70.0001 34.9996 70.0001Z" fill="#41B4E6"/>
<path d="M70 35.0004C70 34.1476 69.9679 33.3025 69.908 32.4649L55.4023 17.9594L14.5977 34.0101L30.2098 49.6222L30.4146 50.3594L30.6797 50.0922L30.6808 50.0932L30.4146 50.3594L47.6845 67.6293C60.7439 62.5489 70 49.8563 70 35.0004Z" fill="#0091C8"/>
<path d="M31.6009 40.0996L47.418 52.0416L55.4023 17.9594L14.5976 34.0101L27.014 38.1227L49.6742 22.9228L31.6009 40.0996Z" fill="white"/>
<path d="M27.014 38.1226L30.4146 50.3595L31.6009 40.0996L49.6741 22.9228L27.014 38.1226Z" fill="#D2D2D7"/>
<path d="M36.7415 43.9808L30.4146 50.3595L31.6009 40.0996L36.7415 43.9808Z" fill="#B9B9BE"/>
</g>
<defs>
<clipPath id="clip0">
<rect width="70" height="70" fill="white"/>
</clipPath>
</defs>
</svg>
