<svg width="70" height="70" viewBox="0 0 70 70" fill="none" xmlns="http://www.w3.org/2000/svg">
<path d="M70 0H0V70H70V0Z" fill="#61A8DE"/>
<path d="M55.1182 15.4525L8.30836 33.6938C6.79218 34.2847 6.88403 36.4604 8.44475 36.9212L20.3396 40.4338L24.7788 54.5197C25.2425 55.9911 27.1071 56.4371 28.1864 55.335L34.3364 49.0556L46.4032 57.9129C47.8799 58.9969 49.9829 58.1915 50.3579 56.3986L58.3498 18.1892C58.7412 16.3176 56.8998 14.7582 55.1182 15.4525ZM49.2495 23.9321L27.5066 43.1594C27.2899 43.3511 27.1519 43.6163 27.1197 43.9039L26.2826 51.3455C26.2552 51.5881 25.9156 51.6202 25.8431 51.3871L22.399 40.2891C22.2412 39.781 22.4469 39.2305 22.8989 38.9501L48.5751 23.0256C49.1655 22.6591 49.7701 23.4719 49.2495 23.9321Z" fill="white"/>
</svg>
