<svg width="100" height="100" viewBox="0 0 100 100" fill="none" xmlns="http://www.w3.org/2000/svg">
<path d="M88.8888 0H11.1112C4.97214 0 0 4.97214 0 11.1112V88.8891C0 95.0279 4.97214 100 11.1112 100H88.8891C95.0279 100 100 95.0279 100 88.8888V11.1112C100 4.97214 95.0279 0 88.8888 0ZM66.6667 41.6667C66.6667 46.2779 62.9445 50 58.3333 50C62.9445 50 66.6667 53.7221 66.6667 58.3333V66.6667C66.6667 72.8055 61.6945 77.7779 55.5555 77.7779H33.3333V66.6667H55.5555V55.5555H44.4443V44.4443H55.5555V33.3333H33.3333V22.2221H55.5555C61.6945 22.2221 66.6667 27.1945 66.6667 33.3333V41.6667Z" fill="#FEED01"/>
</svg>
