<svg width="50" height="50" viewBox="0 0 50 50" fill="none" xmlns="http://www.w3.org/2000/svg">
<path d="M44.4444 0H5.5556C2.48607 0 0 2.48607 0 5.5556V44.4445C0 47.5139 2.48607 50 5.5556 50H44.4445C47.5139 50 50 47.5139 50 44.4444V5.5556C50 2.48607 47.5139 0 44.4444 0ZM33.3333 20.8333C33.3333 23.1389 31.4723 25 29.1667 25C31.4723 25 33.3333 26.8611 33.3333 29.1667V33.3333C33.3333 36.4027 30.8473 38.8889 27.7777 38.8889H16.6667V33.3333H27.7777V27.7777H22.2221V22.2221H27.7777V16.6667H16.6667V11.1111H27.7777C30.8473 11.1111 33.3333 13.5973 33.3333 16.6667V20.8333Z" fill="#FEED01"/>
</svg>
