<svg width="100" height="100" viewBox="0 0 100 100" fill="none" xmlns="http://www.w3.org/2000/svg">
<path d="M88.8888 0H11.1112C4.97214 0 0 4.97214 0 11.1112V88.8891C0 95.0279 4.97214 100 11.1112 100H88.8891C95.0279 100 100 95.0279 100 88.8888V11.1112C100 4.97214 95.0279 0 88.8888 0ZM66.6667 44.4445C66.6667 50.5833 61.6945 55.5557 55.5555 55.5557H44.4443V66.6667H66.6667V77.7779H33.3333V55.5557C33.3333 49.4169 38.3055 44.4445 44.4445 44.4445H55.5557V33.3333H33.3333V22.2221H55.5555C61.6945 22.2221 66.6667 27.1945 66.6667 33.3333V44.4445Z" fill="#FEED01"/>
</svg>
