<svg width="50" height="50" viewBox="0 0 50 50" fill="none" xmlns="http://www.w3.org/2000/svg">
<path d="M44.4444 0H5.5556C2.48607 0 0 2.48607 0 5.5556V44.4445C0 47.5139 2.48607 50 5.5556 50H44.4445C47.5139 50 50 47.5139 50 44.4444V5.5556C50 2.48607 47.5139 0 44.4444 0ZM33.3333 22.2223C33.3333 25.2917 30.8473 27.7779 27.7777 27.7779H22.2221V33.3333H33.3333V38.8889H16.6667V27.7779C16.6667 24.7085 19.1527 22.2223 22.2223 22.2223H27.7779V16.6667H16.6667V11.1111H27.7777C30.8473 11.1111 33.3333 13.5973 33.3333 16.6667V22.2223Z" fill="#FEED01"/>
</svg>
