<svg width="70" height="70" viewBox="0 0 70 70" fill="none" xmlns="http://www.w3.org/2000/svg">
<path d="M70 0H0V70H70V0Z" fill="#7D3DAF"/>
<path d="M57.1384 22.564L57.1245 22.5087C56.0063 17.9883 50.9652 13.1376 46.3357 12.1285L46.2835 12.1177C38.7955 10.6893 31.2031 10.6893 23.7167 12.1177L23.6629 12.1285C19.035 13.1376 13.9938 17.9883 12.8741 22.5087L12.8618 22.564C11.4794 28.877 11.4794 35.279 12.8618 41.5919L12.8741 41.6472C13.9461 45.9747 18.6118 50.6025 23.0685 51.8753V56.9213C23.0685 58.7476 25.2941 59.6446 26.5598 58.3267L31.6724 53.0123C32.7812 53.0744 33.8906 53.109 35.0001 53.109C38.7694 53.109 42.5403 52.7526 46.2835 52.0384L46.3357 52.0276C50.9652 51.0185 56.0063 46.1678 57.1245 41.6474L57.1384 41.5921C58.5208 35.279 58.5208 28.877 57.1384 22.564ZM53.0926 40.6765C52.3461 43.6256 48.5184 47.292 45.4771 47.9694C41.4957 48.7265 37.4827 49.0501 33.4738 48.939C33.3941 48.9369 33.3174 48.9678 33.2618 49.0249C32.6929 49.6089 29.5289 52.8569 29.5289 52.8569L25.5583 56.9319C25.268 57.2345 24.7581 57.0287 24.7581 56.6109V48.2517C24.7581 48.1136 24.6595 47.9963 24.5238 47.9697C24.5231 47.9695 24.5223 47.9694 24.5215 47.9692C21.4803 47.2918 17.6541 43.6254 16.9061 40.6763C15.6619 34.9701 15.6619 29.1856 16.9061 23.4793C17.6541 20.5302 21.4803 16.8638 24.5215 16.1864C31.475 14.8639 38.5252 14.8639 45.4771 16.1864C48.5199 16.8638 52.3461 20.5302 53.0926 23.4793C54.3381 29.1857 54.3381 34.9703 53.0926 40.6765Z" fill="white"/>
<path d="M41.6158 44.5351C41.1482 44.3932 40.7026 44.2978 40.2888 44.1261C36.0009 42.3471 32.0547 40.052 28.9288 36.5338C27.1512 34.5332 25.7599 32.2745 24.5837 29.8842C24.026 28.7506 23.556 27.5726 23.0769 26.4024C22.6401 25.3352 23.2835 24.2326 23.9611 23.4285C24.5968 22.6739 25.4149 22.0964 26.3008 21.6707C26.9923 21.3385 27.6745 21.53 28.1795 22.1162C29.2713 23.3834 30.2741 24.7154 31.0862 26.1843C31.5856 27.0877 31.4486 28.1921 30.5436 28.807C30.3236 28.9564 30.1232 29.1318 29.9183 29.3006C29.7385 29.4486 29.5694 29.598 29.4462 29.7983C29.2211 30.1648 29.2103 30.597 29.3553 30.9955C30.4714 34.0625 32.3525 36.4475 35.4395 37.732C35.9335 37.9375 36.4296 38.1769 36.9987 38.1105C37.9518 37.9991 38.2604 36.9537 38.9282 36.4075C39.581 35.8738 40.4152 35.8667 41.1184 36.3117C41.8218 36.7568 42.5036 37.2347 43.1813 37.7176C43.8465 38.1916 44.5088 38.6553 45.1225 39.1957C45.7124 39.7153 45.9156 40.397 45.5834 41.1022C44.9752 42.3936 44.0901 43.468 42.8134 44.1539C42.4529 44.3473 42.0224 44.4099 41.6158 44.5351C41.1482 44.393 42.0224 44.4099 41.6158 44.5351Z" fill="white"/>
<path d="M35.0118 20.1937C40.6205 20.3509 45.2271 24.073 46.2143 29.618C46.3825 30.5628 46.4424 31.5288 46.5172 32.4877C46.5487 32.891 46.3203 33.2743 45.885 33.2795C45.4354 33.2849 45.2331 32.9087 45.2039 32.5055C45.1461 31.7074 45.1061 30.9058 44.9961 30.1143C44.4155 25.9362 41.0839 22.4796 36.9252 21.7379C36.2994 21.6262 35.6589 21.5969 35.025 21.5304C34.6243 21.4883 34.0994 21.464 34.0106 20.9659C33.9361 20.5482 34.2886 20.2157 34.6863 20.1944C34.7944 20.1884 34.9032 20.1933 35.0118 20.1937C40.6205 20.3509 34.9032 20.1933 35.0118 20.1937Z" fill="white"/>
<path d="M43.5353 31.2435C43.5261 31.3136 43.5212 31.4782 43.4802 31.6334C43.3313 32.1965 42.4776 32.267 42.281 31.6986C42.2228 31.53 42.214 31.3381 42.2137 31.1566C42.2117 29.9687 41.9535 28.7819 41.3545 27.7484C40.7387 26.6861 39.7979 25.7931 38.6945 25.2527C38.0272 24.926 37.3056 24.7229 36.5743 24.6019C36.2547 24.5491 35.9317 24.5169 35.6105 24.4723C35.2213 24.4182 35.0135 24.1701 35.0319 23.7866C35.0491 23.4272 35.3118 23.1687 35.7034 23.1908C36.9906 23.2639 38.2338 23.5421 39.3781 24.148C41.7052 25.3803 43.0344 27.3255 43.4224 29.9229C43.4399 30.0405 43.4682 30.1571 43.4771 30.2752C43.4991 30.5669 43.5129 30.8589 43.5353 31.2435C43.5261 31.3136 43.5129 30.8589 43.5353 31.2435Z" fill="white"/>
<path d="M40.0468 31.1074C39.5775 31.1158 39.3264 30.8561 39.278 30.4259C39.2443 30.1259 39.2178 29.8219 39.1462 29.5301C39.0052 28.9553 38.6997 28.4226 38.2161 28.0704C37.9879 27.9041 37.7292 27.7829 37.4583 27.7047C37.1141 27.6053 36.7566 27.6327 36.4132 27.5485C36.0402 27.4571 35.834 27.1551 35.8926 26.8052C35.9459 26.4868 36.2557 26.2383 36.6037 26.2635C38.7782 26.4205 40.3323 27.5447 40.5541 30.1045C40.5698 30.2852 40.5882 30.4761 40.5481 30.6489C40.4794 30.9447 40.2604 31.0929 40.0468 31.1074C39.5775 31.1158 40.2604 31.0929 40.0468 31.1074Z" fill="white"/>
</svg>
