<svg width="70" height="70" viewBox="0 0 70 70" fill="none" xmlns="http://www.w3.org/2000/svg">
<g clip-path="url(#clip0)">
<path d="M70 35C70 54.3302 54.3302 70 35 70C15.6698 70 0 54.3302 0 35C0 15.6698 15.6698 0 35 0C54.3302 0 70 15.6698 70 35Z" fill="#9330B2"/>
<path d="M69.9962 35.2991L52.1886 17.4915C49.0793 14.1093 44.621 11.9854 39.6751 11.9854H30.3248C20.9511 11.9854 13.3253 19.6117 13.3253 28.9855V35.4828C13.3253 39.9625 15.1411 44.2787 18.2754 47.4462V56.0307C18.2754 56.71 18.567 57.3477 19.0616 57.7915L31.1254 69.7853C32.3981 69.9258 33.6905 70 35 70C54.2298 70 69.8355 54.491 69.9962 35.2991V35.2991Z" fill="#681F7B"/>
<path d="M39.6751 11.9858H30.3248C20.9511 11.9858 13.3253 19.6116 13.3253 28.9854V35.4833C13.3253 39.9624 15.1411 44.2787 18.2754 47.4462V56.0306C18.2754 56.8755 18.7262 57.6558 19.4573 58.0787C19.8237 58.2902 20.2322 58.396 20.6408 58.396C21.0488 58.396 21.4568 58.2908 21.8221 58.0798L31.5307 52.4829H39.6751C49.0489 52.4829 56.6747 44.8571 56.6747 35.4833V28.9854C56.6747 19.6116 49.0489 11.9858 39.6751 11.9858V11.9858ZM53.0549 35.7493C53.0549 42.8811 47.2198 48.7167 40.0874 48.7167H32.4691L20.5228 56.0306V44.6648C18.3101 42.3358 16.9451 39.1955 16.9451 35.7498V28.7189C16.9451 21.5871 22.7802 15.752 29.912 15.752H40.0874C47.2192 15.752 53.0549 21.5871 53.0549 28.7189V35.7493Z" fill="white"/>
<path d="M39.6757 11.9858H35V15.752H40.088C47.2192 15.752 53.0544 21.5871 53.0544 28.7184V35.7498C53.0544 42.8816 47.2192 48.7167 40.088 48.7167H35V52.4829H39.6757C49.0489 52.4829 56.6753 44.8566 56.6753 35.4833V28.9854C56.6753 19.6111 49.0489 11.9858 39.6757 11.9858V11.9858Z" fill="#FFF5CB"/>
<path d="M32.5268 22.4657C32.4803 22.4197 32.4408 22.3653 32.4098 22.3033C32.2571 21.9962 32.382 21.6235 32.6891 21.4702C35.9795 19.8312 40.3347 20.7433 43.2795 23.6881C46.2232 26.6319 47.1359 30.985 45.4985 34.2742C45.3458 34.5813 44.973 34.7063 44.6654 34.5535C44.3583 34.4008 44.2333 34.028 44.3861 33.7209C45.789 30.9027 44.9725 27.1381 42.401 24.5661C39.8284 21.9936 36.0622 21.1781 33.2429 22.5826C32.9978 22.7044 32.7105 22.6494 32.5268 22.4657V22.4657Z" fill="white"/>
<path d="M45.4985 34.2747C45.3463 34.5808 44.9725 34.7063 44.6659 34.5541C44.3588 34.4003 44.2333 34.028 44.3866 33.7204C45.789 30.9022 44.9719 27.1387 42.401 24.5661C40.3347 22.4999 37.4978 21.5674 35 22.0091V20.7519C37.8348 20.3332 40.9846 21.3938 43.2795 23.6876C46.2232 26.6324 47.1359 30.9855 45.4985 34.2747V34.2747Z" fill="#FFF5CB"/>
<path d="M33.9378 25.2001C33.8881 25.1499 33.8459 25.0911 33.8144 25.0238C33.6686 24.713 33.8027 24.3434 34.1135 24.1982C36.3752 23.1402 39.2297 23.764 41.2164 25.7507C43.2026 27.7374 43.8274 30.5898 42.7711 32.8499C42.6253 33.1607 42.2557 33.2948 41.9449 33.1495C41.6346 33.0042 41.5006 32.6341 41.6453 32.3238C42.4816 30.5358 41.9561 28.2474 40.3379 26.6292C38.7197 25.011 36.4302 24.486 34.6401 25.3234C34.3965 25.4372 34.1172 25.3795 33.9378 25.2001V25.2001Z" fill="white"/>
<path d="M42.7705 32.8499C42.6253 33.1602 42.2557 33.2942 41.9454 33.149C41.6351 33.0037 41.4995 32.6341 41.6447 32.3239C42.4816 30.5353 41.9566 28.2474 40.339 26.6297C38.8265 25.1178 36.7293 24.5592 35 25.1755V23.8767C37.085 23.3207 39.4829 24.0161 41.2164 25.7512C43.2037 27.7368 43.8269 30.5903 42.7705 32.8499V32.8499Z" fill="#FFF5CB"/>
<path d="M35.3332 27.9302C35.2729 27.8703 35.2243 27.7966 35.1923 27.7117C35.0705 27.3913 35.2318 27.0324 35.5522 26.9106C36.7453 26.4578 38.1611 26.8097 39.1592 27.8079C40.1574 28.806 40.5104 30.2213 40.0581 31.4127C39.9368 31.7337 39.5779 31.895 39.2575 31.7732C38.9365 31.6515 38.7753 31.2931 38.897 30.9721C39.1715 30.248 38.9237 29.3294 38.2807 28.6864C37.6382 28.0434 36.7186 27.7966 35.9933 28.0722C35.7573 28.1614 35.5009 28.0978 35.3332 27.9302Z" fill="white"/>
<path d="M35.3332 27.9302C35.2729 27.8703 35.2243 27.7966 35.1923 27.7117C35.0705 27.3913 35.2318 27.0324 35.5522 26.9106C36.7453 26.4578 38.1611 26.8097 39.1592 27.8079C40.1574 28.806 40.5104 30.2213 40.0581 31.4127C39.9368 31.7337 39.5779 31.895 39.2575 31.7732C38.9365 31.6515 38.7753 31.2931 38.897 30.9721C39.1715 30.248 38.9237 29.3294 38.2807 28.6864C37.6382 28.0434 36.7186 27.7966 35.9933 28.0722C35.7573 28.1614 35.5009 28.0978 35.3332 27.9302Z" fill="#FFF5CB"/>
<path d="M30.8493 26.8407L26.5373 22.5287C25.9894 21.9813 25.2155 21.8526 24.8171 22.2505L24.4006 22.6675C22.369 24.6986 21.993 27.6599 23.6433 29.6722C25.6914 32.1684 27.9702 34.6977 30.1609 36.8046C32.2678 38.9953 34.7971 41.2741 37.2932 43.3222C39.3056 44.9725 42.2669 44.5965 44.2979 42.5655L44.715 42.1484C45.1129 41.7505 44.9842 40.9761 44.4363 40.4287L40.1243 36.1167C39.101 35.0929 38.426 35.2345 38.0276 35.6323C38.0276 35.6323 37.4839 36.1851 37.3846 36.2994V36.2978C36.9968 36.686 36.0147 36.7725 35.1276 36.2171C34.3201 35.7108 33.4843 34.976 32.7335 34.232C31.9895 33.4811 31.2547 32.6453 30.7484 31.8379C30.1929 30.9508 30.2795 29.9686 30.6677 29.5809H30.6661C30.7804 29.4816 31.3332 28.9379 31.3332 28.9379C31.7316 28.5395 31.8726 27.8645 30.8493 26.8407V26.8407Z" fill="white"/>
<path d="M44.7156 42.1478L44.2979 42.5655C42.2669 44.5965 39.305 44.9719 37.2932 43.3217C36.5274 42.6942 35.7589 42.0437 35 41.3809V36.1349C35.0422 36.1632 35.086 36.1899 35.1282 36.2171C36.0142 36.7725 36.9974 36.685 37.3851 36.2972V36.3004C37.4839 36.1845 38.0281 35.6329 38.0281 35.6329C38.426 35.2339 39.1016 35.0929 40.1243 36.1167L44.4363 40.4287C44.9837 40.9761 45.1134 41.7505 44.7156 42.1478Z" fill="#FFF5CB"/>
</g>
<defs>
<clipPath id="clip0">
<rect width="70" height="70" fill="white"/>
</clipPath>
</defs>
</svg>
