<svg width="480" height="480" viewBox="0 0 480 480" fill="none" xmlns="http://www.w3.org/2000/svg">
<path d="M471.199 63.1369C470.285 61.2228 468.649 59.7502 466.649 59.0392L300.703 0.457194C296.539 -1.01546 291.969 1.17204 290.496 5.3361L252.801 112H236.313V84.8009C236.313 77.3556 232.856 70.3322 226.957 65.7892C221.055 61.2463 213.383 59.6994 206.184 61.6017L13.9612 112.266V112.41C10.4768 113.285 8.02759 116.406 8.00024 120V456C8.00024 469.254 18.7463 480 32.0002 480H256C269.254 480 280 469.254 280 456V383.41L344.16 406.059C348.328 407.527 352.899 405.344 354.367 401.176L471.543 69.2502C472.246 67.2463 472.121 65.047 471.199 63.1369ZM210.266 77.0314C212.664 76.3986 215.227 76.9142 217.192 78.4259C219.16 79.9416 220.313 82.2853 220.313 84.7697V112H77.6877L210.266 77.0314ZM264 456C264 460.418 260.418 464 256 464H32.0002C27.5823 464 24.0002 460.418 24.0002 456V128H256C260.418 128 264 131.582 264 136V456ZM329.762 158.457L340 153.602L344.879 163.809L306.008 273.817C305.305 275.817 305.422 278.016 306.336 279.93L314.664 297.352L312.09 304.656L296.223 288.227C294.481 286.406 291.981 285.52 289.481 285.824L280 287.024V276.305L286.824 273.039C288.739 272.125 290.211 270.488 290.922 268.488L306.922 223.242L329.762 158.457ZM344.848 211.856L361.09 237.953L358.313 245.817L338.879 228.801L344.848 211.856ZM280 251.352V229.367L287.871 229.039L280 251.352ZM293.602 212.793L280 213.352V202.703L299.586 195.871L293.602 212.793ZM341.938 388.305L280 366.442V303.152L287.496 302.215L309.602 325.082C311.117 326.629 313.196 327.492 315.36 327.481C315.93 327.485 316.5 327.422 317.055 327.297C319.766 326.707 321.973 324.758 322.895 322.145L330.895 299.512C331.602 297.512 331.485 295.313 330.567 293.402L322.199 276L333.145 245L356.649 265.602C358.106 266.879 359.981 267.586 361.922 267.586C362.606 267.586 363.285 267.496 363.946 267.32C366.512 266.649 368.578 264.75 369.465 262.25L377.465 239.617C378.274 237.324 377.996 234.793 376.711 232.731L351.672 192.504L361.047 165.953C361.754 163.949 361.637 161.75 360.719 159.832L350.961 139.426C349.055 135.438 344.278 133.75 340.289 135.656L319.871 145.418C317.961 146.332 316.489 147.969 315.785 149.969L306.399 176.551L280 185.762V136C279.981 127.676 275.637 119.957 268.528 115.625L281.602 78.5509L284.535 70.2345L302.938 18.2345L453.809 71.4884L341.938 388.305Z" fill="#FEED01"/>
<path d="M405.054 122.137L410.379 107.047L424.097 111.887L418.773 126.977L405.054 122.137Z" fill="#FEED01"/>
<path d="M295.328 83.3984L300.656 68.3125L314.371 73.1562L309.043 88.2422L295.328 83.3984Z" fill="#FEED01"/>
<path d="M377.621 112.453L382.949 97.3633L396.664 102.207L391.336 117.293L377.621 112.453Z" fill="#FEED01"/>
<path d="M322.762 93.0859L328.09 78L341.801 82.8438L336.473 97.9297L322.762 93.0859Z" fill="#FEED01"/>
<path d="M350.191 102.762L355.519 87.6758L369.234 92.5195L363.906 107.605L350.191 102.762Z" fill="#FEED01"/>
<path d="M140.313 160C96.1292 160 60.3127 195.816 60.3127 240C60.3127 284.184 96.1292 320 140.313 320C184.496 320 220.313 284.184 220.313 240C220.266 195.84 184.477 160.051 140.313 160ZM198.082 212.648L187.168 210.25C182.367 209.191 177.567 208.352 172.719 207.625C171.985 202.777 171.121 197.953 170.09 193.176L167.688 182.266C181.004 188.605 191.739 199.332 198.082 212.648ZM76.3127 240C76.3284 236.73 76.594 233.465 77.1135 230.234L96.8948 225.832C99.9299 225.16 102.985 224.602 106.047 224.074C105.274 234.676 105.274 245.324 106.047 255.93C102.985 255.402 99.9299 254.84 96.8948 254.168L77.1135 249.77C76.594 246.539 76.3284 243.273 76.3127 240ZM122.281 221.977C134.274 220.906 146.336 220.906 158.328 221.977C159.403 233.969 159.403 246.031 158.328 258.023C146.336 259.098 134.274 259.098 122.281 258.023C121.207 246.031 121.207 233.969 122.281 221.977ZM174.543 224.074C177.61 224.602 180.664 225.16 183.696 225.832L203.481 230.234C204.59 236.699 204.59 243.305 203.481 249.77L183.696 254.168C180.664 254.84 177.61 255.402 174.543 255.938C175.321 245.328 175.321 234.68 174.543 224.074ZM150.074 176.801L154.473 196.594C155.145 199.625 155.711 202.68 156.242 205.746C145.633 204.969 134.985 204.969 124.375 205.746C124.906 202.68 125.465 199.625 126.145 196.594L130.543 176.801C137.008 175.703 143.61 175.703 150.074 176.801ZM112.953 182.207L110.551 193.121C109.496 197.922 108.656 202.723 107.93 207.57C103.082 208.297 98.2581 209.168 93.4807 210.191L82.5667 212.594C88.9182 199.289 99.6448 188.57 112.953 182.234V182.207ZM82.551 267.328L93.4651 269.73C98.2659 270.785 103.063 271.625 107.914 272.352C108.641 277.199 109.512 282.023 110.535 286.801L112.938 297.711C99.6213 291.379 88.8909 280.66 82.5354 267.352L82.551 267.328ZM130.551 303.152L126.153 283.359C125.473 280.336 124.914 277.273 124.383 274.215C129.68 274.602 135 274.863 140.321 274.863C145.641 274.863 150.946 274.602 156.25 274.215C155.719 277.273 155.153 280.336 154.481 283.359L150.082 303.152C143.617 304.25 137.016 304.25 130.551 303.152ZM167.672 297.746L170.074 286.832C171.137 282.031 171.969 277.234 172.703 272.383C177.543 271.656 182.375 270.785 187.153 269.762L198.063 267.359C191.723 280.688 180.989 291.426 167.664 297.77L167.672 297.746Z" fill="#FEED01"/>
<path d="M76.3127 384H204.313V400H76.3127V384Z" fill="#FEED01"/>
<path d="M92.3127 416H188.313V432H92.3127V416Z" fill="#FEED01"/>
<path d="M132.313 352H148.313V368H132.313V352Z" fill="#FEED01"/>
<path d="M100.313 352H116.313V368H100.313V352Z" fill="#FEED01"/>
<path d="M164.312 352H180.312V368H164.312V352Z" fill="#FEED01"/>
</svg>
