<svg width="198" height="198" viewBox="0 0 198 198" fill="none" xmlns="http://www.w3.org/2000/svg">
<path d="M99 0C153.676 0 198 44.3238 198 99C198 153.676 153.676 198 99 198C44.3238 198 0 153.676 0 99C0 44.3238 44.3238 0 99 0Z" fill="#AFEBD2"/>
<path d="M0.198 92.8125H54.1406V170.076C54.1406 177.94 45.1196 182.435 38.8753 177.655C15.2421 159.563 0 131.062 0 99C0 96.9214 0.0719297 94.8594 0.198 92.8125Z" fill="#C42364"/>
<path d="M171.261 166.654C170.896 167.044 170.531 167.435 170.16 167.819C170.159 167.82 170.157 167.822 170.156 167.823C152.157 186.429 126.932 198 99 198C76.6422 198 56.0181 190.585 39.4453 178.086V50.2734C39.4453 46.0017 42.908 42.5391 47.1797 42.5391H168.138C168.879 42.5391 169.568 42.751 170.156 43.1118V34.8047H174.36C189.099 52.0899 198 74.5041 198 99C198 124.773 188.145 148.239 172.006 165.854V165.862C171.944 165.929 171.88 165.994 171.818 166.062C171.634 166.261 171.446 166.456 171.261 166.654Z" fill="#FFF091"/>
<path d="M54.9141 34.8047H174.36C176.25 37.0214 178.048 39.3181 179.74 41.6972V156.303C161.798 181.538 132.321 198 99 198C80.0005 198 62.2536 192.644 47.1797 183.365V42.5391C47.1797 38.2674 50.6424 34.8047 54.9141 34.8047Z" fill="#FFFAD2"/>
<path d="M135.352 67.6758H58.0078C56.9397 67.6758 56.0742 68.5416 56.0742 69.6094V112.148C56.0742 113.216 56.9397 114.082 58.0078 114.082H135.352C136.42 114.082 137.285 113.216 137.285 112.148V69.6094C137.285 68.5416 136.42 67.6758 135.352 67.6758ZM133.418 110.215H59.9414V71.543H133.418V110.215ZM65.7422 106.348H127.617C128.685 106.348 129.551 105.482 129.551 104.414V77.3438C129.551 76.276 128.685 75.4102 127.617 75.4102H65.7422C64.6741 75.4102 63.8086 76.276 63.8086 77.3438V104.414C63.8086 105.482 64.6741 106.348 65.7422 106.348ZM67.6758 79.2773H125.684V102.48H67.6758V79.2773ZM119.883 85.8516V88.1719C119.883 88.5992 119.536 88.9453 119.109 88.9453H95.5195C95.0926 88.9453 94.7461 88.5992 94.7461 88.1719V85.8516C94.7461 85.4242 95.0926 85.0781 95.5195 85.0781H119.109C119.536 85.0781 119.883 85.4242 119.883 85.8516ZM116.016 93.5859V95.9062C116.016 96.3336 115.669 96.6797 115.242 96.6797H107.121C106.694 96.6797 106.348 96.3336 106.348 95.9062V93.5859C106.348 93.1586 106.694 92.8125 107.121 92.8125H115.242C115.669 92.8125 116.016 93.1586 116.016 93.5859ZM102.48 93.5859V95.9062C102.48 96.3336 102.134 96.6797 101.707 96.6797H95.5195C95.0926 96.6797 94.7461 96.3336 94.7461 95.9062V93.5859C94.7461 93.1586 95.0926 92.8125 95.5195 92.8125H101.707C102.134 92.8125 102.48 93.1586 102.48 93.5859ZM88.9453 90.8789C88.9453 95.1506 85.4826 98.6133 81.2109 98.6133C76.9392 98.6133 73.4766 95.1506 73.4766 90.8789C73.4766 86.6072 76.9392 83.1445 81.2109 83.1445C85.4826 83.1445 88.9453 86.6072 88.9453 90.8789Z" fill="#FF7251"/>
<path d="M129.551 121.816C112.492 121.816 98.6133 135.695 98.6133 152.754C98.6133 169.813 112.492 183.691 129.551 183.691C146.61 183.691 160.488 169.813 160.488 152.754C160.488 135.695 146.61 121.816 129.551 121.816ZM129.551 179.824C115.275 179.824 103.553 168.714 102.557 154.688H112.148C113.217 154.688 114.082 153.822 114.082 152.754C114.082 151.686 113.217 150.82 112.148 150.82H102.557C103.553 136.794 115.275 125.684 129.551 125.684C143.827 125.684 155.549 136.794 156.545 150.82H146.953C145.885 150.82 145.02 151.686 145.02 152.754C145.02 153.822 145.885 154.688 146.953 154.688H156.545C155.549 168.714 143.827 179.824 129.551 179.824ZM129.551 139.219C137.026 139.219 143.086 145.279 143.086 152.754C143.086 160.229 137.026 166.289 129.551 166.289C122.076 166.289 116.016 160.229 116.016 152.754C116.016 145.279 122.076 139.219 129.551 139.219ZM111.539 145.723C111.15 146.718 110.028 147.209 109.034 146.821C108.04 146.432 107.548 145.311 107.937 144.316C111.442 135.347 119.925 129.551 129.551 129.551C139.176 129.551 147.66 135.347 151.165 144.316C151.554 145.31 151.062 146.432 150.067 146.82C149.836 146.911 149.598 146.954 149.364 146.954C148.591 146.954 147.861 146.486 147.563 145.723C144.642 138.248 137.572 133.418 129.551 133.418C121.53 133.418 114.46 138.248 111.539 145.723ZM147.563 159.784C147.951 158.79 149.073 158.299 150.067 158.687C151.062 159.076 151.554 160.197 151.165 161.192C147.66 170.161 139.176 175.957 129.551 175.957C119.925 175.957 111.442 170.161 107.937 161.192C107.548 160.197 108.04 159.076 109.034 158.687C110.028 158.299 111.15 158.79 111.539 159.785C114.46 167.26 121.53 172.09 129.551 172.09C137.572 172.09 144.642 167.26 147.563 159.784Z" fill="#E3B954"/>
<path d="M185.258 36.6686C170.156 51.7707 145.721 65.4934 139.114 58.8863C132.506 52.2789 146.229 27.8436 161.331 12.7415C176.433 -2.36063 187.197 -2.4113 193.804 4.19618C200.411 10.8033 200.361 21.566 185.258 36.6686Z" fill="#D6A74F"/>
<path d="M162.699 66.0644L151.077 77.6861C149.567 79.1962 147.118 79.1962 145.608 77.6861L120.314 52.392C118.804 50.8818 118.804 48.4331 120.314 46.923L131.936 35.3013C133.446 33.7912 135.895 33.7912 137.405 35.3013L162.699 60.5954C164.209 62.1059 164.209 64.5543 162.699 66.0644Z" fill="#C78B00"/>
<path d="M164.408 88.2825L152.786 99.9042C151.276 101.414 148.827 101.414 147.317 99.9042L98.0959 50.683C96.5857 49.1728 96.5857 46.7241 98.0959 45.214L109.718 33.5923C111.228 32.0822 113.676 32.0822 115.186 33.5923L164.408 82.8135C165.918 84.3236 165.918 86.7723 164.408 88.2825Z" fill="#CD2D23"/>
<path d="M173.295 90.3332L161.673 101.955C160.163 103.465 157.714 103.465 156.204 101.955L96.0451 41.7958C94.5349 40.2856 94.5349 37.8369 96.0451 36.3268L107.667 24.7051C109.177 23.195 111.626 23.195 113.136 24.7051L173.295 84.8642C174.805 86.3744 174.805 88.8231 173.295 90.3332Z" fill="#D6A74F"/>
</svg>
