<svg width="512" height="512" viewBox="0 0 512 512" fill="none" xmlns="http://www.w3.org/2000/svg">
<path d="M462 44H414.333V30C414.333 13.458 400.875 0 384.333 0C367.791 0 354.333 13.458 354.333 30V44H186.333V30C186.333 13.458 172.875 0 156.333 0C139.791 0 126.333 13.458 126.333 30V44.37C125.483 44.135 124.592 44 123.667 44H83.823C56.253 44 33.823 66.43 33.823 94V264.333C33.823 269.856 38.301 274.333 43.823 274.333C49.345 274.333 53.823 269.856 53.823 264.333V147H414.333C419.855 147 424.333 142.523 424.333 137C424.333 131.477 419.855 127 414.333 127H53.823V94C53.823 77.458 67.281 64 83.823 64H123.667C124.592 64 125.483 63.864 126.333 63.63V76.5C126.333 93.042 139.791 106.5 156.333 106.5C172.875 106.5 186.333 93.042 186.333 76.5V64H354.333V76.5C354.333 93.042 367.791 106.5 384.333 106.5C400.875 106.5 414.333 93.042 414.333 76.5V64H462C478.542 64 492 77.458 492 94V473.994C492 483.922 483.923 492 473.994 492C464.065 492 455.988 483.922 455.988 473.994V448.125C455.988 442.602 451.51 438.125 445.988 438.125H329.667C324.145 438.125 319.667 442.602 319.667 448.125C319.667 453.648 324.145 458.125 329.667 458.125H435.988V473.994C435.988 480.505 437.636 486.637 440.533 492H38C28.075 492 20 483.925 20 474V458.125H243.825C249.347 458.125 253.825 453.648 253.825 448.125C253.825 442.602 249.347 438.125 243.825 438.125H143.909C161.383 423.076 172.479 400.816 172.479 376C172.479 330.785 135.694 294 90.479 294C45.264 294 8.479 330.785 8.479 376C8.479 400.816 19.575 423.076 37.049 438.125H10C4.478 438.125 0 442.602 0 448.125V474C0 494.953 17.047 512 38 512H473.994C494.95 512 512 494.951 512 473.994V94C512 66.43 489.57 44 462 44ZM166.333 76.5C166.333 82.014 161.847 86.5 156.333 86.5C150.819 86.5 146.333 82.014 146.333 76.5V30C146.333 24.486 150.819 20 156.333 20C161.847 20 166.333 24.486 166.333 30V76.5ZM394.333 76.5C394.333 82.014 389.847 86.5 384.333 86.5C378.819 86.5 374.333 82.014 374.333 76.5V30C374.333 24.486 378.819 20 384.333 20C389.847 20 394.333 24.486 394.333 30V76.5ZM28.479 376C28.479 341.813 56.292 314 90.479 314C124.666 314 152.479 341.813 152.479 376C152.479 410.187 124.666 438 90.479 438C56.292 438 28.479 410.187 28.479 376Z" fill="#FEED01"/>
<path d="M468.309 129.93C466.45 128.07 463.87 127 461.24 127C458.609 127 456.03 128.07 454.17 129.93C452.31 131.79 451.24 134.37 451.24 137C451.24 139.63 452.309 142.21 454.17 144.07C456.031 145.93 458.609 147 461.24 147C463.87 147 466.45 145.93 468.309 144.07C470.169 142.21 471.24 139.63 471.24 137C471.24 134.37 470.17 131.79 468.309 129.93Z" fill="#FEED01"/>
<path d="M298.649 441.05C296.79 439.19 294.21 438.13 291.58 438.13C288.95 438.13 286.37 439.19 284.51 441.05C282.65 442.92 281.58 445.49 281.58 448.12C281.58 450.76 282.649 453.33 284.51 455.2C286.37 457.06 288.95 458.12 291.58 458.12C294.21 458.12 296.79 457.06 298.649 455.2C300.509 453.33 301.58 450.75 301.58 448.12C301.58 445.49 300.51 442.92 298.649 441.05Z" fill="#FEED01"/>
<path d="M226.245 304C205.292 304 188.245 321.047 188.245 342C188.245 362.953 205.292 380 226.245 380C247.198 380 264.245 362.953 264.245 342C264.245 321.047 247.198 304 226.245 304ZM226.245 360C216.32 360 208.245 351.925 208.245 342C208.245 332.075 216.32 324 226.245 324C236.17 324 244.245 332.075 244.245 342C244.245 351.925 236.17 360 226.245 360Z" fill="#FEED01"/>
<path d="M319.578 304C298.625 304 281.578 321.047 281.578 342C281.578 362.953 298.625 380 319.578 380C340.531 380 357.578 362.953 357.578 342C357.578 321.047 340.531 304 319.578 304ZM319.578 360C309.653 360 301.578 351.925 301.578 342C301.578 332.075 309.653 324 319.578 324C329.503 324 337.578 332.075 337.578 342C337.578 351.925 329.503 360 319.578 360Z" fill="#FEED01"/>
<path d="M412.912 304C391.959 304 374.912 321.047 374.912 342C374.912 362.953 391.959 380 412.912 380C433.865 380 450.912 362.953 450.912 342C450.912 321.047 433.865 304 412.912 304ZM412.912 360C402.987 360 394.912 351.925 394.912 342C394.912 332.075 402.987 324 412.912 324C422.837 324 430.912 332.075 430.912 342C430.912 351.925 422.837 360 412.912 360Z" fill="#FEED01"/>
<path d="M132.912 200C111.959 200 94.9121 217.047 94.9121 238C94.9121 258.953 111.959 276 132.912 276C153.865 276 170.912 258.953 170.912 238C170.912 217.047 153.865 200 132.912 200ZM132.912 256C122.987 256 114.912 247.925 114.912 238C114.912 228.075 122.987 220 132.912 220C142.837 220 150.912 228.075 150.912 238C150.912 247.925 142.837 256 132.912 256Z" fill="#FEED01"/>
<path d="M319.578 200C298.625 200 281.578 217.047 281.578 238C281.578 258.953 298.625 276 319.578 276C340.531 276 357.578 258.953 357.578 238C357.578 217.047 340.531 200 319.578 200ZM319.578 256C309.653 256 301.578 247.925 301.578 238C301.578 228.075 309.653 220 319.578 220C329.503 220 337.578 228.075 337.578 238C337.578 247.925 329.503 256 319.578 256Z" fill="#FEED01"/>
<path d="M412.912 200C391.959 200 374.912 217.047 374.912 238C374.912 258.953 391.959 276 412.912 276C433.865 276 450.912 258.953 450.912 238C450.912 217.047 433.865 200 412.912 200ZM412.912 256C402.987 256 394.912 247.925 394.912 238C394.912 228.075 402.987 220 412.912 220C422.837 220 430.912 228.075 430.912 238C430.912 247.925 422.837 256 412.912 256Z" fill="#FEED01"/>
<path d="M226.245 200C205.292 200 188.245 217.047 188.245 238C188.245 258.953 205.292 276 226.245 276C247.198 276 264.245 258.953 264.245 238C264.245 217.047 247.198 200 226.245 200ZM226.245 256C216.32 256 208.245 247.925 208.245 238C208.245 228.075 216.32 220 226.245 220C236.17 220 244.245 228.075 244.245 238C244.245 247.925 236.17 256 226.245 256Z" fill="#FEED01"/>
<path d="M126.104 351.629C122.198 347.724 115.868 347.724 111.961 351.629L79.3951 384.196L68.2661 373.067C64.3601 369.162 58.0301 369.162 54.1231 373.067C50.2181 376.972 50.2181 383.304 54.1231 387.21L72.3241 405.409C74.2001 407.284 76.7431 408.338 79.3951 408.338C82.0471 408.338 84.5901 407.284 86.4661 405.409L126.104 365.771C130.009 361.866 130.009 355.534 126.104 351.629Z" fill="#FEED01"/>
</svg>
