<svg width="177" height="177" viewBox="0 0 177 177" fill="none" xmlns="http://www.w3.org/2000/svg">
<g clip-path="url(#clip0)">
<path d="M-1.52588e-05 51.5944V174.98H88.5L96.946 114.756L88.5 51.5944L47.0041 41.3123L-1.52588e-05 51.5944Z" fill="#F5F8F9"/>
<path d="M177 51.5943L134.77 39.4761L88.5 51.5943V174.98H177V51.5943Z" fill="#E3EAEE"/>
<path d="M-1.52588e-05 18.5447V51.5945H88.5L95.4772 35.804L88.5 18.5447H-1.52588e-05Z" fill="#FF3F5C"/>
<path d="M88.5 18.5447H177V51.5945H88.5V18.5447Z" fill="#CA2E43"/>
<path d="M38.7417 2.01978H49.7583V35.0696H38.7417V2.01978Z" fill="#C2BCE0"/>
<path d="M127.242 2.01978H138.258V35.0696H127.242V2.01978Z" fill="#A299D1"/>
<path d="M16.5249 147.439H44.4336V158.456H16.5249V147.439Z" fill="#6E61B6"/>
<path d="M149.458 147.439H160.475V158.456H149.458V147.439Z" fill="#463B84"/>
<path d="M127.425 147.439H138.442V158.456H127.425V147.439Z" fill="#463B84"/>
<path d="M70.5033 152.855L80.5177 157.446L88.5 140.034L91.805 122.101L88.5 113.6L70.5033 152.855Z" fill="#6E61B6"/>
<path d="M66.783 70.6899V81.7066H88.5L91.805 76.5655L88.5 70.6899H66.783Z" fill="#6E61B6"/>
<path d="M115.725 70.6899H88.5V81.7065H103.121L88.5 113.6V140.034L115.725 80.6493V70.6899Z" fill="#463B84"/>
</g>
<defs>
<clipPath id="clip0">
<rect width="177" height="177" fill="white"/>
</clipPath>
</defs>
</svg>
