<svg width="70" height="70" viewBox="0 0 70 70" fill="none" xmlns="http://www.w3.org/2000/svg">
<path d="M59.7488 10.2512C53.1382 3.64068 44.3488 0 35 0L33.6327 34.6486L35 70C44.3488 70 53.1382 66.3593 59.7488 59.7488C66.3593 53.1381 70 44.3488 70 35C70 25.6512 66.3593 16.8619 59.7488 10.2512V10.2512Z" fill="#0DC46E"/>
<path d="M10.2512 10.2512C3.64068 16.8619 0 25.6512 0 35C0 41.6423 1.85623 48.0677 5.37797 53.6488L0.0281641 69.9717L16.351 64.622C21.9323 68.1438 28.3575 70 35 70V0C25.6512 0 16.8618 3.64068 10.2512 10.2512V10.2512Z" fill="#04DB7B"/>
<path d="M45.0432 37.4001L41.3973 41.046L35 34.6485L33.6327 40.8868L35 49.8196C36.9559 51.4876 38.7412 52.8128 40.424 53.8647C43.314 55.6709 47.068 55.2434 49.4778 52.8336L54.9772 47.3342L45.0432 37.4001Z" fill="#F7F0EB"/>
<path d="M28.954 28.6026L32.5999 24.9568L22.6658 15.0226L17.1664 20.522C14.7566 22.9317 14.3291 26.6858 16.1353 29.5758C18.061 32.657 20.9003 36.0797 25.0888 40.2682L29.7317 44.911C31.6323 46.8118 33.375 48.4338 35 49.8196V34.6485L28.954 28.6026Z" fill="#FFFBF5"/>
</svg>
