<svg width="70" height="70" viewBox="0 0 70 70" fill="none" xmlns="http://www.w3.org/2000/svg">
<path d="M70 0H0V70H70V0Z" fill="#1BD741"/>
<path d="M10.5206 59.506L13.9494 47.328C11.7445 43.5822 10.5836 39.3203 10.5836 34.9421C10.5836 21.4614 21.5509 10.4941 35.0316 10.4941C48.5122 10.4941 59.4794 21.4614 59.4794 34.9421C59.4794 48.4227 48.5122 59.39 35.0316 59.39C30.8311 59.39 26.718 58.3148 23.0794 56.2732L10.5206 59.506ZM23.7214 51.8254L24.4698 52.2824C27.6422 54.2191 31.2945 55.2429 35.0316 55.2429C46.2254 55.2429 55.3322 46.136 55.3322 34.9421C55.3322 23.7482 46.2254 14.6413 35.0316 14.6413C23.8377 14.6413 14.7308 23.7482 14.7308 34.9421C14.7308 38.8424 15.8393 42.6301 17.9363 45.8954L18.4402 46.6802L16.4657 53.6932L23.7214 51.8254Z" fill="white"/>
<path d="M28.1638 23.563L26.5774 23.4765C26.0792 23.4493 25.5904 23.6158 25.2138 23.943C24.4447 24.6108 23.215 25.902 22.8373 27.5845C22.274 30.0933 23.1445 33.1652 25.3973 36.2372C27.6502 39.3092 31.8485 44.2244 39.2724 46.3236C41.6647 47.0001 43.5466 46.5441 44.9986 45.6152C46.1486 44.8797 46.9413 43.6989 47.227 42.3642L47.4803 41.1811C47.5608 40.8051 47.3699 40.4236 47.0206 40.2626L41.6592 37.7914C41.3111 37.631 40.8984 37.7324 40.6643 38.0357L38.5596 40.7643C38.4006 40.9704 38.1284 41.0521 37.8826 40.9658C36.4413 40.4592 31.613 38.4371 28.9637 33.3339C28.8489 33.1126 28.8774 32.8439 29.0404 32.6551L31.0519 30.3281C31.2574 30.0905 31.3094 29.7564 31.1859 29.4677L28.8748 24.0608C28.7518 23.773 28.4761 23.58 28.1638 23.563Z" fill="white"/>
</svg>
