<svg width="479" height="479" viewBox="0 0 479 479" fill="none" xmlns="http://www.w3.org/2000/svg">
<path d="M478.199 221.782C478.476 221.033 478.636 220.248 478.671 219.448C478.671 218.605 478.535 217.766 478.273 216.966L477.657 215.221C471.132 152.154 439.824 94.2618 390.615 54.2827C387.099 51.4181 383.423 48.8307 379.746 46.1768C379.563 46.0246 379.465 45.81 379.266 45.6656C379.067 45.5212 378.907 45.5368 378.739 45.4314C338.054 16.2667 289.278 0.542805 239.219 0.449141C237.158 0.449141 235.086 0.449141 233.544 0.60915C206.842 1.12821 180.429 6.2095 155.44 15.6345C133.776 -1.26413 104.369 -4.32774 79.6849 7.74325C55.0005 19.8142 39.3624 44.9085 39.4015 72.3833C39.8815 81.5234 42.0046 90.4996 45.677 98.8786C37.5204 110.029 30.3394 121.858 24.2161 134.241C24.0952 134.432 24.0249 134.639 23.9195 134.838C-32.7474 252.008 14.4048 392.992 130.162 452.493C245.916 511.997 388.004 468.291 450.307 354.016C467.369 322.58 477.067 287.679 478.664 251.95C478.913 248.094 478.999 244.164 478.999 240.23C478.999 234.036 478.679 227.897 478.199 221.782V221.782ZM454.974 180.765C453.96 179.863 453.023 178.821 451.962 177.99C441.518 170.06 429.681 164.147 417.064 160.56C405.574 157.676 393.566 157.552 382.018 160.194C372.195 162.418 362.009 162.469 352.162 160.342C333.055 156.17 317.955 152.88 309.947 140.091C298.477 121.705 303.855 95.8658 315.957 86.7725C319.946 84.0211 324.867 82.9713 329.632 83.8533C338.109 84.548 346.628 83.1118 354.41 79.6813C362.692 75.8021 370.048 70.2017 375.992 63.2472C377.502 64.4141 379.099 65.4639 380.578 66.6698C416.646 96.0336 442.65 135.919 454.974 180.765ZM111.336 16.4345C142.218 16.4853 167.238 41.5053 167.284 72.3833C167.284 96.2911 131.376 151.026 111.336 178.774C92.3335 153.095 75.8213 125.659 62.0292 96.8414C58.2709 89.1883 56.0152 80.8873 55.3868 72.3833C55.422 41.4975 80.4499 16.4696 111.336 16.4345ZM15.4234 240.23C15.4546 225.337 16.9572 210.48 19.9076 195.88C20.7623 206.991 22.2102 216.876 23.5059 225.45C28.4584 258.221 33.1377 289.115 57.2914 317.366C67.3915 329.269 84.3057 349.169 110.458 352.112C136.609 355.054 169.357 340.01 178.817 335.326L182.446 333.496C187.473 330.331 193.218 328.493 199.146 328.149C209.258 329.066 218.624 333.851 225.298 341.504C238.938 356.604 242.399 381.815 232.705 395.455C229.599 399.506 225.31 402.488 220.427 403.986C212.072 406.781 204.969 412.443 200.383 419.972C193.628 432.203 192.371 446.724 196.929 459.935C91.6662 439.54 15.5873 347.452 15.4234 240.23V240.23ZM239.219 464.025C231.495 464.025 223.78 463.627 216.095 462.835C215.44 461.996 214.831 461.121 214.273 460.212C208.871 450.221 208.813 438.189 214.121 428.148C217.005 423.566 221.473 420.206 226.672 418.707C234.293 416.081 240.944 411.198 245.732 404.712C259.634 385.164 255.7 351.296 237.181 330.811C227.55 319.798 213.922 313.085 199.322 312.164H198.966C190.548 312.418 182.345 314.861 175.156 319.255L171.745 320.98C154.281 329.589 129.432 338.101 112.233 336.165C92.3843 333.945 78.6 317.702 69.456 306.946C48.2567 282.168 44.1081 254.752 39.3156 223.023C34.1719 195.88 33.9689 168.034 38.7068 140.817C42.988 132.149 47.8235 123.766 53.1896 115.719C53.455 116.249 53.7477 116.792 53.9897 117.319C54.5009 118.333 55.0278 119.34 55.5859 120.355C56.3859 121.865 57.186 123.376 57.986 124.898C58.5363 125.92 59.0944 126.943 59.6642 127.973C60.5111 129.491 61.3657 131.009 62.2282 132.528C62.8058 133.534 63.3795 134.545 63.9649 135.552C64.8547 137.07 65.7446 138.581 66.6422 140.091C67.2315 141.082 67.8169 142.066 68.414 143.049C69.3584 144.645 70.3107 146.14 71.2629 147.682C71.8054 148.556 72.3401 149.442 72.8591 150.304C74.0417 152.201 75.2164 154.039 76.3911 155.901C76.7033 156.381 77.0155 156.884 77.3199 157.356C78.7834 159.624 80.2352 161.837 81.6597 163.995C82.2022 164.795 82.729 165.595 83.2598 166.395C84.1379 167.714 85.016 169.033 85.8707 170.294L87.7674 173.069C88.4543 174.083 89.1489 175.098 89.8202 176.066L91.7364 178.821C92.3296 179.68 92.9228 180.519 93.4887 181.323C94.0546 182.131 94.6946 183.044 95.2878 183.867C95.8772 184.691 96.2791 185.264 96.7514 185.928L98.3475 188.133L99.651 189.94L100.923 191.692L101.961 193.097L102.937 194.424L103.519 195.224C104.233 196.192 104.775 196.918 104.927 197.117C106.434 199.131 108.803 200.317 111.32 200.317C113.837 200.317 116.206 199.131 117.713 197.117C124.421 188.223 183.27 109.326 183.27 72.3833C183.27 70.0495 183.125 67.7313 182.903 65.4288C182.833 64.7185 182.72 64.0082 182.63 63.2979C182.423 61.6978 182.177 60.0977 181.834 58.5015C181.681 57.7015 181.514 56.9521 181.338 56.1833C180.967 54.5832 180.538 52.987 180.05 51.3869C179.851 50.7469 179.683 50.099 179.473 49.4707C178.754 47.3281 177.947 45.209 177.029 43.1484C176.854 42.7542 176.643 42.3483 176.46 41.9893C175.66 40.3267 174.863 38.6798 173.942 37.0719C173.544 36.3538 173.103 35.6591 172.674 34.9527C171.905 33.6922 171.105 32.4511 170.274 31.2296C169.778 30.5193 169.275 29.809 168.756 29.1104C168.483 28.7592 168.252 28.3845 167.956 28.0411C184.585 22.4407 201.831 18.8659 219.319 17.3946C206.858 40.916 202.787 62.6735 207.439 82.1361C210.909 95.1711 217.492 107.172 226.625 117.104C234.145 126.416 239.554 133.129 239.219 144.087C238.532 167.265 212.357 186.56 202.452 193.85C189.46 203.205 174.938 210.218 159.534 214.581C145.016 219.323 132.492 223.413 127.704 237.705C122.97 256.578 130.744 276.38 147.057 286.988C156.833 292.268 168.354 293.287 178.907 289.802C190.466 287.117 202.416 286.543 214.179 288.116C229.364 290.266 242.458 292.112 248.667 300.807C252.351 306.002 252.16 311.372 251.442 321.222C249.803 335.166 251.219 349.302 255.587 362.645C259.232 373.58 264.738 390.093 277.968 391.997C278.827 392.134 279.697 392.204 280.564 392.204C289.926 392.204 295.655 383.938 301.681 375.243C304.343 371.399 307.278 367.25 310.794 363.086C327.244 389.663 343.955 411.842 344.732 412.896C346.242 414.91 348.611 416.092 351.124 416.092C353.641 416.092 356.01 414.91 357.521 412.896C374.86 389.675 390.666 365.338 404.829 340.053C414.648 342.898 423.999 347.159 432.585 352.705C392.594 421.642 318.915 464.06 239.219 464.025V464.025ZM388.403 246.521C400.278 257.113 407.069 272.271 407.065 288.186C407.065 293.935 404.731 305.33 393.648 326.975C380.995 350.426 366.789 372.999 351.116 394.546C343.596 384.067 330.655 365.467 319.075 345.918C312.62 335.202 306.856 324.091 301.81 312.644C298.052 304.991 295.796 296.69 295.167 288.186C295.203 257.3 320.231 232.272 351.116 232.237C352.845 232.237 354.558 232.315 356.264 232.471C368.214 233.552 379.493 238.485 388.403 246.521V246.521ZM462.733 251.126C461.355 281.528 453.694 311.313 440.226 338.605C431.469 333.067 422.032 328.672 412.158 325.527C418.332 313.971 422.044 301.252 423.051 288.186C422.984 260.758 407.389 235.734 382.79 223.589L382.287 223.366C380.5 222.504 378.685 221.696 376.831 220.97C375.559 220.474 374.24 220.088 372.936 219.674C372.136 219.432 371.418 219.132 370.641 218.874C368.581 218.289 366.485 217.813 364.378 217.419H364.272C362.996 217.181 361.7 217.052 360.405 216.884C339.853 214.039 319.079 220.271 303.488 233.958C287.893 247.649 279.022 267.439 279.182 288.186C279.803 298.84 282.492 309.276 287.097 318.904C291.577 329.106 296.631 339.046 302.235 348.674C297.24 354.141 292.666 359.976 288.549 366.13C286.351 369.896 283.577 373.292 280.326 376.195C278.726 375.953 275.763 372.542 270.733 357.587C267.064 346.234 265.913 334.214 267.369 322.373C269.445 311.739 267.404 300.714 261.663 291.527C251.457 277.255 233.642 274.741 216.306 272.283C202.83 270.44 189.132 271.057 175.878 274.097C165.653 276.052 160.908 276.782 155.479 273.399C145.562 266.6 140.606 254.576 142.85 242.763C144.985 236.37 151.381 234.06 164.432 229.775C181.475 224.884 197.538 217.079 211.916 206.702C223.561 198.159 254.279 175.488 255.204 144.56C255.715 127.637 247.25 117.198 239.066 107.105C231.503 99.0035 226 89.2039 223.019 78.5301C218.773 60.7221 224.033 39.8389 238.302 16.4345H239.219C283.221 16.497 326.237 29.5007 362.906 53.8261C358.672 58.5444 353.548 62.3769 347.822 65.1048C342.249 67.5167 336.157 68.4689 330.112 67.8757C321.706 66.8376 313.221 69.0192 306.356 73.9834C288.232 87.6272 280.111 122.42 296.401 148.548C307.996 167.066 327.802 171.383 349.43 176.097C361.072 178.556 373.104 178.505 384.726 175.945C394.054 173.72 403.779 173.748 413.091 176.035C423.57 179.055 433.404 183.98 442.107 190.556C451.146 198.054 457.999 207.841 461.952 218.898C462.608 225.958 463.014 233.037 463.014 240.23C463.014 243.805 462.944 247.422 462.702 251.126H462.733Z" fill="#FEED01"/>
<path d="M111.336 96.3614C128.991 96.3614 143.306 82.0503 143.306 64.3907C143.306 46.735 128.991 32.4199 111.336 32.4199C93.6799 32.4199 79.3649 46.735 79.3649 64.3907C79.3649 82.0503 93.6799 96.3614 111.336 96.3614ZM111.336 48.4053C120.163 48.4053 127.321 55.5628 127.321 64.3907C127.321 73.2185 120.163 80.3761 111.336 80.3761C102.508 80.3761 95.3502 73.2185 95.3502 64.3907C95.3502 55.5628 102.508 48.4053 111.336 48.4053Z" fill="#FEED01"/>
<path d="M319.146 280.193C319.146 297.853 333.461 312.164 351.116 312.164C368.772 312.164 383.087 297.853 383.087 280.193C383.087 262.537 368.772 248.222 351.116 248.222C333.461 248.222 319.146 262.537 319.146 280.193ZM367.102 280.193C367.102 289.021 359.944 296.179 351.116 296.179C342.288 296.179 335.131 289.021 335.131 280.193C335.131 271.365 342.288 264.208 351.116 264.208C359.944 264.208 367.102 271.365 367.102 280.193Z" fill="#FEED01"/>
</svg>
