<svg width="188" height="188" viewBox="0 0 188 188" fill="none" xmlns="http://www.w3.org/2000/svg">
<g clip-path="url(#clip0)">
<path d="M158.409 161.823C189.623 130.609 189.623 80.0003 158.409 48.7861C127.195 17.5718 76.5864 17.5718 45.3721 48.7861C14.1579 80.0003 14.1579 130.609 45.3721 161.823C76.5864 193.037 127.195 193.037 158.409 161.823Z" fill="#DDEBFD"/>
<path d="M101.913 25.364C100.061 25.364 98.2256 25.4323 96.4051 25.5564C137.985 28.3867 170.838 63.0066 170.838 105.305C170.838 147.603 137.986 182.223 96.4051 185.054C98.2256 185.177 100.061 185.246 101.913 185.246C146.063 185.246 181.854 149.455 181.854 105.305C181.854 61.1545 146.063 25.364 101.913 25.364Z" fill="#BED9FD"/>
<path d="M177.567 131.189H127.948C114.602 131.189 104.701 143.568 107.634 156.588L113.889 184.353C143.662 179.88 168.059 158.987 177.567 131.189Z" fill="#72C888"/>
<path d="M105.493 115.426H122.048C124.708 115.426 126.884 113.25 126.884 110.59V109.923C126.884 104.699 131.118 100.465 136.342 100.465H148.421C160.892 100.465 172.049 94.8431 179.5 85.9979C176.009 71.9232 168.79 59.3224 158.95 49.3015L154.637 49.5112C135.839 50.4255 119.9 63.6398 115.519 81.9434C114.5 86.1987 110.696 89.1997 106.321 89.1997H105.493C102.833 89.1997 100.657 91.3757 100.657 94.0356V110.59C100.657 113.25 102.834 115.426 105.493 115.426Z" fill="#72C888"/>
<path d="M166.549 131.189C158.184 155.642 138.3 174.751 113.367 182.039L113.888 184.353C143.662 179.88 168.058 158.987 177.567 131.189H166.549Z" fill="#6ABB7D"/>
<path d="M179.501 85.9974C176.01 71.9227 168.791 59.3219 158.95 49.301L154.638 49.5107C152.659 49.6069 150.714 49.8474 148.809 50.2076C160.052 62.02 167.717 77.2664 170.07 94.2147C173.622 91.9726 176.805 89.1974 179.501 85.9974Z" fill="#6ABB7D"/>
<path d="M66.9574 177.215L73.5388 145.947C75.9736 134.379 67.1472 123.501 55.3249 123.501H24.0533C29.5652 147.178 45.5984 166.813 66.9574 177.215Z" fill="#72C888"/>
<path d="M45.5316 45.8944H76.4415L43.4085 4.17639C42.6026 3.27164 41.4485 2.75391 40.2364 2.75391C37.4748 2.75391 35.4472 5.34735 36.114 8.02745L45.5316 45.8944Z" fill="#5392F9"/>
<path d="M45.5316 60.0728H76.4415L43.4089 101.791C42.6029 102.696 41.4489 103.214 40.2368 103.214C37.4752 103.214 35.4475 100.62 36.1144 97.9401L45.5316 60.0728Z" fill="#5392F9"/>
<path d="M43.4085 4.17639C42.6026 3.27164 41.4485 2.75391 40.2364 2.75391C37.4748 2.75391 35.4472 5.34735 36.114 8.02745L36.4202 9.25827L65.4291 45.8948H76.4415L43.4085 4.17639Z" fill="#4981F8"/>
<path d="M65.4287 60.0728L36.4198 96.7093L36.1136 97.9401C35.4472 100.62 37.4744 103.214 40.236 103.214C41.4477 103.214 42.6018 102.696 43.4078 101.791L76.4403 60.0728H65.4287Z" fill="#4981F8"/>
<path d="M6.7739 42.6005L15.6268 52.9629L23.6693 45.8333L19.3545 39.4747C18.8742 38.7667 18.0741 38.343 17.2189 38.343H8.73615C6.53302 38.343 5.3426 40.9254 6.7739 42.6005Z" fill="#5392F9"/>
<path d="M23.6832 60.0317L15.6268 52.963L23.6832 45.8943H83.5146C88.7397 45.8943 93.8469 47.4486 98.1863 50.3589C100.038 51.6011 100.038 54.3245 98.1863 55.5667C93.8469 58.4774 88.7397 60.0314 83.5146 60.0314H23.6832V60.0317Z" fill="#FDFCFC"/>
<path d="M6.7739 63.3253L15.6268 52.9629L23.6693 60.0926L19.3545 66.4512C18.8742 67.1591 18.0741 67.5828 17.2189 67.5828H8.73615C6.53302 67.5828 5.3426 65.0004 6.7739 63.3253Z" fill="#5392F9"/>
<path d="M160.387 46.8311C144.768 31.212 124.001 22.6103 101.913 22.6103C100.392 22.6103 99.1586 23.8433 99.1586 25.3642C99.1586 26.8851 100.392 28.1181 101.913 28.1181C121.175 28.1181 138.811 35.2111 152.348 46.9214C143.338 47.7836 134.929 51.2708 127.915 57.0863C120.343 63.3637 115.131 71.7374 112.841 81.3023C112.116 84.3309 109.435 86.4459 106.321 86.4459H105.494C101.309 86.4459 97.9039 89.8504 97.9039 94.0356V110.59C97.9039 114.775 101.309 118.18 105.494 118.18H122.048C126.233 118.18 129.638 114.775 129.638 110.59V109.923C129.638 106.226 132.645 103.219 136.342 103.219H148.422C159.436 103.219 169.914 99.0591 177.892 91.6618C178.686 96.0915 179.1 100.651 179.1 105.305C179.1 113.36 177.858 121.13 175.558 128.435H145.168C143.647 128.435 142.414 129.668 142.414 131.189C142.414 132.71 143.647 133.943 145.168 133.943H173.589C163.882 158.152 142.251 176.338 116.001 181.199L110.321 155.983C109.108 150.598 110.389 145.036 113.837 140.726C117.285 136.415 122.428 133.943 127.948 133.943H134.152C135.673 133.943 136.906 132.71 136.906 131.189C136.906 129.668 135.673 128.435 134.152 128.435H127.948C120.746 128.435 114.034 131.661 109.536 137.286C105.037 142.91 103.365 150.166 104.947 157.193L110.537 182.007C107.705 182.324 104.828 182.492 101.913 182.492C90.5793 182.492 79.8093 180.036 70.1053 175.629L76.2336 146.514C77.5658 140.184 75.9924 133.673 71.9166 128.65C67.8408 123.628 61.7933 120.747 55.3249 120.747H26.2785C25.261 115.756 24.7257 110.592 24.7257 105.305C24.7257 90.1111 29.1352 75.4104 37.4777 62.7927C37.4792 62.7905 37.4803 62.788 37.4818 62.7858H42.0191L33.4416 97.2753C32.918 99.3808 33.384 101.569 34.7202 103.278C36.0564 104.987 38.0671 105.967 40.2364 105.967C42.2321 105.967 44.1374 105.113 45.4648 103.623L77.8048 62.7858H83.5142C89.3059 62.7858 94.9099 61.0805 99.7204 57.8541C101.354 56.7584 102.329 54.9301 102.329 52.9631C102.329 50.9965 101.354 49.1679 99.7204 48.0722C94.9103 44.8461 89.3063 43.1409 83.5146 43.1409H77.6932C77.6084 42.9683 77.5052 42.8019 77.3811 42.6452L70.9847 34.567C77.5746 31.6813 84.5233 29.7381 91.6753 28.7904C93.183 28.5907 94.2434 27.2064 94.0437 25.6987C93.8439 24.191 92.4622 23.131 90.952 23.3304C82.8081 24.4092 74.9099 26.6923 67.4575 30.1127L45.5676 2.46677C45.5346 2.42491 45.5 2.38415 45.4648 2.34449C44.1378 0.854445 42.2321 0 40.2368 0C38.0671 0 36.0567 0.98039 34.7205 2.68965C33.3843 4.39891 32.9184 6.58661 33.442 8.69206L42.0092 43.1409H25.17L21.6332 37.929C20.6393 36.4643 18.9891 35.5896 17.2185 35.5896H8.73613C6.62958 35.5896 4.77308 36.7782 3.89109 38.6917C3.00911 40.6047 3.31131 42.7884 4.67981 44.39L12.0045 52.9639L4.68018 61.537C3.31167 63.1386 3.00948 65.3223 3.89146 67.2353C4.77308 69.1484 6.62958 70.337 8.7365 70.337H17.2189C18.9891 70.337 20.6393 69.4627 21.6336 67.9976L25.1703 62.7858H30.9759C23.2746 75.6057 19.2179 90.229 19.2179 105.305C19.2179 127.393 27.8196 148.16 43.4387 163.779C59.0577 179.398 79.8244 188 101.913 188C124.001 188 144.768 179.398 160.387 163.779C176.006 148.16 184.608 127.394 184.608 105.305C184.608 83.2164 176.006 62.4501 160.387 46.8311ZM148.422 97.7104H136.342C129.608 97.7104 124.13 103.188 124.13 109.922V110.59C124.13 111.738 123.197 112.672 122.048 112.672H105.494C104.346 112.672 103.412 111.738 103.412 110.59V94.0353C103.412 92.8874 104.346 91.9533 105.494 91.9533H106.321C111.994 91.9533 116.877 88.1004 118.198 82.5841C120.208 74.1873 124.784 66.8366 131.43 61.3258C138.077 55.8151 146.148 52.6808 154.772 52.2614L157.796 52.1142C169.546 61.3787 176.386 85.0046 176.462 85.2885C169.281 93.2006 159.141 97.7104 148.422 97.7104ZM41.3119 100.003C41.031 100.294 40.6425 100.46 40.2368 100.46C39.603 100.46 39.2274 100.1 39.0596 99.8856C38.8918 99.6712 38.6336 99.2196 38.7868 98.6045L47.6844 62.8265H70.7479L41.3119 100.003ZM96.6522 52.6462C96.6941 52.6741 96.8211 52.7597 96.8211 52.9631C96.8211 53.1665 96.6941 53.2521 96.6522 53.28C92.7527 55.8955 88.2098 57.2779 83.5142 57.2779H24.7198L19.8024 52.9631L24.7202 48.6483H83.5146C88.2095 48.6483 92.7527 50.0308 96.6522 52.6462ZM38.7864 7.36284C38.6336 6.7478 38.8918 6.29616 39.0592 6.08173C39.227 5.86729 39.6026 5.50781 40.2364 5.50781C40.6422 5.50781 41.031 5.67341 41.3119 5.96459L70.7482 43.1409H47.643C47.6308 42.9914 38.7864 7.36284 38.7864 7.36284ZM17.1271 41.0971L20.0319 45.3778L15.8989 49.0419L9.1114 41.0975H17.1271V41.0971ZM17.1271 64.8292H9.1114L15.8985 56.8847L20.0316 60.5489L17.1271 64.8292ZM27.6162 126.255H55.3249C60.1259 126.255 64.6144 128.393 67.6396 132.121C70.6649 135.849 71.8325 140.682 70.8441 145.38L65.0128 173.085C46.9905 163.234 33.3057 146.405 27.6162 126.255Z" fill="black"/>
</g>
<defs>
<clipPath id="clip0">
<rect width="188" height="188" fill="white"/>
</clipPath>
</defs>
</svg>
